<mxfile host="Electron" modified="2023-06-25T13:58:00.448Z" agent="Mozilla/5.0 (X11; Linux x86_64) AppleWebKit/537.36 (KHTML, like Gecko) draw.io/21.5.0 Chrome/112.0.5615.204 Electron/24.5.1 Safari/537.36" etag="8VVdI236tNarIoBY7nS8" version="21.5.0" type="device" pages="5">
  <diagram name="Page-1" id="uFwYqDu03ui0PtWeSSTH">
    <mxGraphModel dx="2187" dy="843" grid="1" gridSize="10" guides="1" tooltips="1" connect="1" arrows="1" fold="1" page="1" pageScale="1" pageWidth="827" pageHeight="1169" math="0" shadow="0">
      <root>
        <mxCell id="0" />
        <mxCell id="1" parent="0" />
        <mxCell id="_r9maqkyMBtUnsPMcbrM-1" value="&lt;font style=&quot;font-size: 16px;&quot;&gt;Guest&lt;/font&gt;" style="shape=umlActor;verticalLabelPosition=bottom;verticalAlign=top;html=1;outlineConnect=0;" parent="1" vertex="1">
          <mxGeometry x="-400" y="280" width="40" height="80" as="geometry" />
        </mxCell>
        <mxCell id="_r9maqkyMBtUnsPMcbrM-4" value="&lt;font style=&quot;font-size: 16px;&quot;&gt;Book room&lt;/font&gt;" style="ellipse;whiteSpace=wrap;html=1;" parent="1" vertex="1">
          <mxGeometry x="110" y="200" width="140" height="60" as="geometry" />
        </mxCell>
        <mxCell id="_r9maqkyMBtUnsPMcbrM-5" value="&lt;font style=&quot;font-size: 16px;&quot;&gt;Payment&lt;/font&gt;" style="ellipse;whiteSpace=wrap;html=1;" parent="1" vertex="1">
          <mxGeometry x="-10" y="80" width="140" height="60" as="geometry" />
        </mxCell>
        <mxCell id="_r9maqkyMBtUnsPMcbrM-6" value="&lt;font style=&quot;font-size: 15px;&quot;&gt;View account&lt;/font&gt;" style="ellipse;whiteSpace=wrap;html=1;" parent="1" vertex="1">
          <mxGeometry x="110" y="280" width="140" height="60" as="geometry" />
        </mxCell>
        <mxCell id="_r9maqkyMBtUnsPMcbrM-7" value="&lt;font style=&quot;font-size: 16px;&quot;&gt;Register new account&lt;/font&gt;" style="ellipse;whiteSpace=wrap;html=1;" parent="1" vertex="1">
          <mxGeometry x="110" y="360" width="140" height="60" as="geometry" />
        </mxCell>
        <mxCell id="_r9maqkyMBtUnsPMcbrM-8" value="&lt;font style=&quot;font-size: 16px;&quot;&gt;Print booking&lt;/font&gt;" style="ellipse;whiteSpace=wrap;html=1;" parent="1" vertex="1">
          <mxGeometry x="110" y="680" width="140" height="60" as="geometry" />
        </mxCell>
        <mxCell id="_r9maqkyMBtUnsPMcbrM-9" value="&lt;font style=&quot;font-size: 16px;&quot;&gt;Cancel booking&lt;/font&gt;" style="ellipse;whiteSpace=wrap;html=1;" parent="1" vertex="1">
          <mxGeometry x="110" y="440" width="140" height="60" as="geometry" />
        </mxCell>
        <mxCell id="_r9maqkyMBtUnsPMcbrM-10" value="&lt;font style=&quot;font-size: 16px;&quot;&gt;Login / Logout&lt;/font&gt;" style="ellipse;whiteSpace=wrap;html=1;" parent="1" vertex="1">
          <mxGeometry x="110" y="760" width="140" height="60" as="geometry" />
        </mxCell>
        <mxCell id="_r9maqkyMBtUnsPMcbrM-11" value="&lt;font style=&quot;font-size: 16px;&quot;&gt;Update booking&lt;/font&gt;" style="ellipse;whiteSpace=wrap;html=1;" parent="1" vertex="1">
          <mxGeometry x="110" y="840" width="140" height="60" as="geometry" />
        </mxCell>
        <mxCell id="_r9maqkyMBtUnsPMcbrM-16" value="" style="endArrow=none;html=1;rounded=0;entryX=0;entryY=0.5;entryDx=0;entryDy=0;exitX=1;exitY=0.3333333333333333;exitDx=0;exitDy=0;exitPerimeter=0;" parent="1" source="_r9maqkyMBtUnsPMcbrM-1" target="_r9maqkyMBtUnsPMcbrM-4" edge="1">
          <mxGeometry width="50" height="50" relative="1" as="geometry">
            <mxPoint x="80" y="400" as="sourcePoint" />
            <mxPoint x="300" y="260" as="targetPoint" />
          </mxGeometry>
        </mxCell>
        <mxCell id="_r9maqkyMBtUnsPMcbrM-20" value="" style="endArrow=none;html=1;rounded=0;entryX=0;entryY=0.5;entryDx=0;entryDy=0;exitX=1;exitY=0.3333333333333333;exitDx=0;exitDy=0;exitPerimeter=0;" parent="1" source="_r9maqkyMBtUnsPMcbrM-1" target="_r9maqkyMBtUnsPMcbrM-7" edge="1">
          <mxGeometry width="50" height="50" relative="1" as="geometry">
            <mxPoint x="250" y="380" as="sourcePoint" />
            <mxPoint x="300" y="330" as="targetPoint" />
          </mxGeometry>
        </mxCell>
        <mxCell id="_r9maqkyMBtUnsPMcbrM-21" value="" style="endArrow=none;html=1;rounded=0;entryX=0;entryY=0.5;entryDx=0;entryDy=0;exitX=1;exitY=0.3333333333333333;exitDx=0;exitDy=0;exitPerimeter=0;" parent="1" source="_r9maqkyMBtUnsPMcbrM-1" target="_r9maqkyMBtUnsPMcbrM-6" edge="1">
          <mxGeometry width="50" height="50" relative="1" as="geometry">
            <mxPoint x="80" y="400" as="sourcePoint" />
            <mxPoint x="300" y="400" as="targetPoint" />
          </mxGeometry>
        </mxCell>
        <mxCell id="_r9maqkyMBtUnsPMcbrM-22" value="" style="endArrow=none;html=1;rounded=0;entryX=1;entryY=0.3333333333333333;entryDx=0;entryDy=0;entryPerimeter=0;exitX=0;exitY=0.5;exitDx=0;exitDy=0;" parent="1" source="_r9maqkyMBtUnsPMcbrM-9" target="_r9maqkyMBtUnsPMcbrM-1" edge="1">
          <mxGeometry width="50" height="50" relative="1" as="geometry">
            <mxPoint x="250" y="590" as="sourcePoint" />
            <mxPoint x="300" y="540" as="targetPoint" />
          </mxGeometry>
        </mxCell>
        <mxCell id="_r9maqkyMBtUnsPMcbrM-23" value="" style="endArrow=none;html=1;rounded=0;exitX=1;exitY=0.3333333333333333;exitDx=0;exitDy=0;exitPerimeter=0;entryX=0;entryY=0.5;entryDx=0;entryDy=0;" parent="1" source="_r9maqkyMBtUnsPMcbrM-1" target="_r9maqkyMBtUnsPMcbrM-10" edge="1">
          <mxGeometry width="50" height="50" relative="1" as="geometry">
            <mxPoint x="250" y="520" as="sourcePoint" />
            <mxPoint x="300" y="470" as="targetPoint" />
          </mxGeometry>
        </mxCell>
        <mxCell id="_r9maqkyMBtUnsPMcbrM-24" value="" style="endArrow=none;html=1;rounded=0;entryX=1;entryY=0.3333333333333333;entryDx=0;entryDy=0;entryPerimeter=0;exitX=0;exitY=0.5;exitDx=0;exitDy=0;" parent="1" source="_r9maqkyMBtUnsPMcbrM-8" target="_r9maqkyMBtUnsPMcbrM-1" edge="1">
          <mxGeometry width="50" height="50" relative="1" as="geometry">
            <mxPoint x="250" y="660" as="sourcePoint" />
            <mxPoint x="300" y="610" as="targetPoint" />
          </mxGeometry>
        </mxCell>
        <mxCell id="_r9maqkyMBtUnsPMcbrM-25" value="&lt;font style=&quot;font-size: 16px;&quot;&gt;Search room / booking&lt;/font&gt;" style="ellipse;whiteSpace=wrap;html=1;" parent="1" vertex="1">
          <mxGeometry x="110" y="920" width="140" height="60" as="geometry" />
        </mxCell>
        <mxCell id="_r9maqkyMBtUnsPMcbrM-26" value="&lt;font style=&quot;font-size: 16px;&quot;&gt;View booking&lt;/font&gt;" style="ellipse;whiteSpace=wrap;html=1;" parent="1" vertex="1">
          <mxGeometry x="110" y="1000" width="140" height="60" as="geometry" />
        </mxCell>
        <mxCell id="_r9maqkyMBtUnsPMcbrM-27" value="" style="endArrow=none;html=1;rounded=0;entryX=1;entryY=0.3333333333333333;entryDx=0;entryDy=0;entryPerimeter=0;exitX=0;exitY=0.5;exitDx=0;exitDy=0;" parent="1" source="_r9maqkyMBtUnsPMcbrM-11" target="_r9maqkyMBtUnsPMcbrM-1" edge="1">
          <mxGeometry width="50" height="50" relative="1" as="geometry">
            <mxPoint x="250" y="790" as="sourcePoint" />
            <mxPoint x="300" y="740" as="targetPoint" />
          </mxGeometry>
        </mxCell>
        <mxCell id="_r9maqkyMBtUnsPMcbrM-28" value="&lt;font style=&quot;font-size: 16px;&quot;&gt;Return room key&lt;/font&gt;" style="ellipse;whiteSpace=wrap;html=1;" parent="1" vertex="1">
          <mxGeometry x="110" y="1080" width="140" height="60" as="geometry" />
        </mxCell>
        <mxCell id="_r9maqkyMBtUnsPMcbrM-29" value="" style="endArrow=none;html=1;rounded=0;exitX=1;exitY=0.3333333333333333;exitDx=0;exitDy=0;exitPerimeter=0;entryX=0;entryY=0.5;entryDx=0;entryDy=0;" parent="1" source="_r9maqkyMBtUnsPMcbrM-1" target="_r9maqkyMBtUnsPMcbrM-25" edge="1">
          <mxGeometry width="50" height="50" relative="1" as="geometry">
            <mxPoint x="-80" y="620" as="sourcePoint" />
            <mxPoint x="120" y="990" as="targetPoint" />
          </mxGeometry>
        </mxCell>
        <mxCell id="_r9maqkyMBtUnsPMcbrM-30" value="" style="endArrow=none;html=1;rounded=0;entryX=0;entryY=0.5;entryDx=0;entryDy=0;exitX=1;exitY=0.3333333333333333;exitDx=0;exitDy=0;exitPerimeter=0;" parent="1" source="_r9maqkyMBtUnsPMcbrM-1" target="_r9maqkyMBtUnsPMcbrM-26" edge="1">
          <mxGeometry width="50" height="50" relative="1" as="geometry">
            <mxPoint y="1030" as="sourcePoint" />
            <mxPoint x="40" y="1000" as="targetPoint" />
          </mxGeometry>
        </mxCell>
        <mxCell id="_r9maqkyMBtUnsPMcbrM-31" value="" style="endArrow=none;html=1;rounded=0;entryX=0;entryY=0.5;entryDx=0;entryDy=0;exitX=1;exitY=0.3333333333333333;exitDx=0;exitDy=0;exitPerimeter=0;" parent="1" source="_r9maqkyMBtUnsPMcbrM-1" target="_r9maqkyMBtUnsPMcbrM-28" edge="1">
          <mxGeometry width="50" height="50" relative="1" as="geometry">
            <mxPoint y="1030" as="sourcePoint" />
            <mxPoint x="40" y="1000" as="targetPoint" />
          </mxGeometry>
        </mxCell>
        <mxCell id="_r9maqkyMBtUnsPMcbrM-32" value="&lt;font style=&quot;font-size: 16px;&quot;&gt;Receptionist&lt;/font&gt;" style="shape=umlActor;verticalLabelPosition=bottom;verticalAlign=top;html=1;outlineConnect=0;" parent="1" vertex="1">
          <mxGeometry x="827" y="280" width="60" height="120" as="geometry" />
        </mxCell>
        <mxCell id="_r9maqkyMBtUnsPMcbrM-34" value="" style="endArrow=none;html=1;rounded=0;entryX=1;entryY=0.5;entryDx=0;entryDy=0;exitX=0;exitY=0.3333333333333333;exitDx=0;exitDy=0;exitPerimeter=0;" parent="1" source="_r9maqkyMBtUnsPMcbrM-32" target="_r9maqkyMBtUnsPMcbrM-4" edge="1">
          <mxGeometry width="50" height="50" relative="1" as="geometry">
            <mxPoint x="220" y="430" as="sourcePoint" />
            <mxPoint x="270" y="380" as="targetPoint" />
          </mxGeometry>
        </mxCell>
        <mxCell id="_r9maqkyMBtUnsPMcbrM-35" value="" style="endArrow=none;html=1;rounded=0;entryX=1;entryY=0.5;entryDx=0;entryDy=0;exitX=0;exitY=0.3333333333333333;exitDx=0;exitDy=0;exitPerimeter=0;" parent="1" source="_r9maqkyMBtUnsPMcbrM-32" target="_r9maqkyMBtUnsPMcbrM-6" edge="1">
          <mxGeometry width="50" height="50" relative="1" as="geometry">
            <mxPoint x="220" y="450" as="sourcePoint" />
            <mxPoint x="270" y="400" as="targetPoint" />
          </mxGeometry>
        </mxCell>
        <mxCell id="_r9maqkyMBtUnsPMcbrM-36" value="" style="endArrow=none;html=1;rounded=0;entryX=1;entryY=0.5;entryDx=0;entryDy=0;exitX=0;exitY=0.3333333333333333;exitDx=0;exitDy=0;exitPerimeter=0;" parent="1" source="_r9maqkyMBtUnsPMcbrM-32" target="_r9maqkyMBtUnsPMcbrM-7" edge="1">
          <mxGeometry width="50" height="50" relative="1" as="geometry">
            <mxPoint x="220" y="450" as="sourcePoint" />
            <mxPoint x="270" y="400" as="targetPoint" />
          </mxGeometry>
        </mxCell>
        <mxCell id="_r9maqkyMBtUnsPMcbrM-37" value="" style="endArrow=none;html=1;rounded=0;entryX=1;entryY=0.5;entryDx=0;entryDy=0;exitX=0;exitY=0.3333333333333333;exitDx=0;exitDy=0;exitPerimeter=0;" parent="1" source="_r9maqkyMBtUnsPMcbrM-32" target="_r9maqkyMBtUnsPMcbrM-9" edge="1">
          <mxGeometry width="50" height="50" relative="1" as="geometry">
            <mxPoint x="220" y="790" as="sourcePoint" />
            <mxPoint x="270" y="740" as="targetPoint" />
          </mxGeometry>
        </mxCell>
        <mxCell id="_r9maqkyMBtUnsPMcbrM-38" value="" style="endArrow=none;html=1;rounded=0;entryX=1;entryY=0.5;entryDx=0;entryDy=0;exitX=0;exitY=0.3333333333333333;exitDx=0;exitDy=0;exitPerimeter=0;" parent="1" source="_r9maqkyMBtUnsPMcbrM-32" target="_r9maqkyMBtUnsPMcbrM-8" edge="1">
          <mxGeometry width="50" height="50" relative="1" as="geometry">
            <mxPoint x="220" y="790" as="sourcePoint" />
            <mxPoint x="270" y="740" as="targetPoint" />
          </mxGeometry>
        </mxCell>
        <mxCell id="_r9maqkyMBtUnsPMcbrM-39" value="" style="endArrow=none;html=1;rounded=0;entryX=1;entryY=0.5;entryDx=0;entryDy=0;exitX=0;exitY=0.3333333333333333;exitDx=0;exitDy=0;exitPerimeter=0;" parent="1" source="_r9maqkyMBtUnsPMcbrM-32" target="_r9maqkyMBtUnsPMcbrM-10" edge="1">
          <mxGeometry width="50" height="50" relative="1" as="geometry">
            <mxPoint x="220" y="790" as="sourcePoint" />
            <mxPoint x="270" y="740" as="targetPoint" />
          </mxGeometry>
        </mxCell>
        <mxCell id="_r9maqkyMBtUnsPMcbrM-40" value="" style="endArrow=none;html=1;rounded=0;exitX=1;exitY=0.5;exitDx=0;exitDy=0;entryX=0;entryY=0.3333333333333333;entryDx=0;entryDy=0;entryPerimeter=0;" parent="1" source="_r9maqkyMBtUnsPMcbrM-11" target="_r9maqkyMBtUnsPMcbrM-32" edge="1">
          <mxGeometry width="50" height="50" relative="1" as="geometry">
            <mxPoint x="220" y="790" as="sourcePoint" />
            <mxPoint x="560" y="670" as="targetPoint" />
          </mxGeometry>
        </mxCell>
        <mxCell id="_r9maqkyMBtUnsPMcbrM-41" value="" style="endArrow=none;html=1;rounded=0;entryX=1;entryY=0.5;entryDx=0;entryDy=0;exitX=0;exitY=0.3333333333333333;exitDx=0;exitDy=0;exitPerimeter=0;" parent="1" source="_r9maqkyMBtUnsPMcbrM-32" target="_r9maqkyMBtUnsPMcbrM-25" edge="1">
          <mxGeometry width="50" height="50" relative="1" as="geometry">
            <mxPoint x="220" y="790" as="sourcePoint" />
            <mxPoint x="270" y="740" as="targetPoint" />
          </mxGeometry>
        </mxCell>
        <mxCell id="_r9maqkyMBtUnsPMcbrM-42" value="" style="endArrow=none;html=1;rounded=0;entryX=1;entryY=0.5;entryDx=0;entryDy=0;exitX=0;exitY=0.3333333333333333;exitDx=0;exitDy=0;exitPerimeter=0;" parent="1" source="_r9maqkyMBtUnsPMcbrM-32" target="_r9maqkyMBtUnsPMcbrM-26" edge="1">
          <mxGeometry width="50" height="50" relative="1" as="geometry">
            <mxPoint x="220" y="1030" as="sourcePoint" />
            <mxPoint x="270" y="980" as="targetPoint" />
          </mxGeometry>
        </mxCell>
        <mxCell id="_r9maqkyMBtUnsPMcbrM-44" value="" style="endArrow=none;html=1;rounded=0;exitX=1;exitY=0.3333333333333333;exitDx=0;exitDy=0;exitPerimeter=0;entryX=0;entryY=0.5;entryDx=0;entryDy=0;" parent="1" source="_r9maqkyMBtUnsPMcbrM-1" target="_r9maqkyMBtUnsPMcbrM-5" edge="1">
          <mxGeometry width="50" height="50" relative="1" as="geometry">
            <mxPoint x="220" y="520" as="sourcePoint" />
            <mxPoint x="270" y="470" as="targetPoint" />
          </mxGeometry>
        </mxCell>
        <mxCell id="_r9maqkyMBtUnsPMcbrM-46" value="&lt;font style=&quot;font-size: 16px;&quot;&gt;Update room&lt;/font&gt;" style="ellipse;whiteSpace=wrap;html=1;" parent="1" vertex="1">
          <mxGeometry x="430" y="40" width="140" height="60" as="geometry" />
        </mxCell>
        <mxCell id="_r9maqkyMBtUnsPMcbrM-47" value="&lt;font style=&quot;font-size: 16px;&quot;&gt;Add room&lt;/font&gt;" style="ellipse;whiteSpace=wrap;html=1;" parent="1" vertex="1">
          <mxGeometry x="430" y="120" width="140" height="60" as="geometry" />
        </mxCell>
        <mxCell id="_r9maqkyMBtUnsPMcbrM-49" value="&lt;font style=&quot;font-size: 16px;&quot;&gt;Remove room&lt;/font&gt;" style="ellipse;whiteSpace=wrap;html=1;" parent="1" vertex="1">
          <mxGeometry x="430" y="200" width="140" height="60" as="geometry" />
        </mxCell>
        <mxCell id="_r9maqkyMBtUnsPMcbrM-50" value="" style="endArrow=none;html=1;rounded=0;entryX=1;entryY=0.5;entryDx=0;entryDy=0;exitX=0;exitY=0.3333333333333333;exitDx=0;exitDy=0;exitPerimeter=0;" parent="1" source="_r9maqkyMBtUnsPMcbrM-32" target="_r9maqkyMBtUnsPMcbrM-49" edge="1">
          <mxGeometry width="50" height="50" relative="1" as="geometry">
            <mxPoint x="440" y="510" as="sourcePoint" />
            <mxPoint x="490" y="460" as="targetPoint" />
          </mxGeometry>
        </mxCell>
        <mxCell id="_r9maqkyMBtUnsPMcbrM-51" value="" style="endArrow=none;html=1;rounded=0;entryX=1;entryY=0.5;entryDx=0;entryDy=0;exitX=0;exitY=0.3333333333333333;exitDx=0;exitDy=0;exitPerimeter=0;" parent="1" source="_r9maqkyMBtUnsPMcbrM-32" target="_r9maqkyMBtUnsPMcbrM-47" edge="1">
          <mxGeometry width="50" height="50" relative="1" as="geometry">
            <mxPoint x="440" y="510" as="sourcePoint" />
            <mxPoint x="490" y="460" as="targetPoint" />
          </mxGeometry>
        </mxCell>
        <mxCell id="_r9maqkyMBtUnsPMcbrM-52" value="" style="endArrow=none;html=1;rounded=0;entryX=1;entryY=0.5;entryDx=0;entryDy=0;exitX=0;exitY=0.3333333333333333;exitDx=0;exitDy=0;exitPerimeter=0;" parent="1" source="_r9maqkyMBtUnsPMcbrM-32" target="_r9maqkyMBtUnsPMcbrM-46" edge="1">
          <mxGeometry width="50" height="50" relative="1" as="geometry">
            <mxPoint x="440" y="510" as="sourcePoint" />
            <mxPoint x="490" y="460" as="targetPoint" />
          </mxGeometry>
        </mxCell>
        <mxCell id="_r9maqkyMBtUnsPMcbrM-53" value="&lt;font style=&quot;font-size: 16px;&quot;&gt;Refund payment&lt;/font&gt;" style="ellipse;whiteSpace=wrap;html=1;" parent="1" vertex="1">
          <mxGeometry x="160" y="560" width="140" height="60" as="geometry" />
        </mxCell>
        <mxCell id="_r9maqkyMBtUnsPMcbrM-58" value="&lt;font style=&quot;font-size: 16px;&quot;&gt;Check in guest&lt;/font&gt;" style="ellipse;whiteSpace=wrap;html=1;" parent="1" vertex="1">
          <mxGeometry x="470" y="770" width="140" height="60" as="geometry" />
        </mxCell>
        <mxCell id="_r9maqkyMBtUnsPMcbrM-59" value="&lt;font style=&quot;font-size: 16px;&quot;&gt;Check out guest&lt;/font&gt;" style="ellipse;whiteSpace=wrap;html=1;" parent="1" vertex="1">
          <mxGeometry x="590" y="960" width="140" height="60" as="geometry" />
        </mxCell>
        <mxCell id="_r9maqkyMBtUnsPMcbrM-60" value="" style="endArrow=block;html=1;rounded=0;exitX=0;exitY=0.5;exitDx=0;exitDy=0;entryX=1;entryY=0.5;entryDx=0;entryDy=0;dashed=1;endFill=0;" parent="1" source="_r9maqkyMBtUnsPMcbrM-59" target="_r9maqkyMBtUnsPMcbrM-28" edge="1">
          <mxGeometry width="50" height="50" relative="1" as="geometry">
            <mxPoint x="480" y="780" as="sourcePoint" />
            <mxPoint x="530" y="730" as="targetPoint" />
          </mxGeometry>
        </mxCell>
        <mxCell id="_r9maqkyMBtUnsPMcbrM-61" value="&lt;font style=&quot;font-size: 16px;&quot;&gt;&amp;lt;&amp;lt;include&amp;gt;&amp;gt;&lt;/font&gt;" style="edgeLabel;html=1;align=center;verticalAlign=middle;resizable=0;points=[];" parent="_r9maqkyMBtUnsPMcbrM-60" vertex="1" connectable="0">
          <mxGeometry x="-0.1192" y="-3" relative="1" as="geometry">
            <mxPoint x="-8" y="7" as="offset" />
          </mxGeometry>
        </mxCell>
        <mxCell id="_r9maqkyMBtUnsPMcbrM-62" value="" style="endArrow=none;html=1;rounded=0;entryX=0;entryY=0.3333333333333333;entryDx=0;entryDy=0;entryPerimeter=0;exitX=0.5;exitY=0;exitDx=0;exitDy=0;" parent="1" source="_r9maqkyMBtUnsPMcbrM-59" target="_r9maqkyMBtUnsPMcbrM-32" edge="1">
          <mxGeometry width="50" height="50" relative="1" as="geometry">
            <mxPoint x="480" y="780" as="sourcePoint" />
            <mxPoint x="530" y="730" as="targetPoint" />
          </mxGeometry>
        </mxCell>
        <mxCell id="_r9maqkyMBtUnsPMcbrM-63" value="" style="endArrow=none;html=1;rounded=0;entryX=0;entryY=0.3333333333333333;entryDx=0;entryDy=0;entryPerimeter=0;exitX=0.5;exitY=0;exitDx=0;exitDy=0;" parent="1" source="_r9maqkyMBtUnsPMcbrM-58" target="_r9maqkyMBtUnsPMcbrM-32" edge="1">
          <mxGeometry width="50" height="50" relative="1" as="geometry">
            <mxPoint x="480" y="680" as="sourcePoint" />
            <mxPoint x="530" y="630" as="targetPoint" />
          </mxGeometry>
        </mxCell>
        <mxCell id="_r9maqkyMBtUnsPMcbrM-64" value="&lt;font style=&quot;font-size: 16px;&quot;&gt;Issue room key&lt;/font&gt;" style="ellipse;whiteSpace=wrap;html=1;" parent="1" vertex="1">
          <mxGeometry x="470" y="880" width="140" height="60" as="geometry" />
        </mxCell>
        <mxCell id="_r9maqkyMBtUnsPMcbrM-65" value="" style="endArrow=block;html=1;rounded=0;exitX=0.5;exitY=1;exitDx=0;exitDy=0;entryX=0.5;entryY=0;entryDx=0;entryDy=0;dashed=1;endFill=0;" parent="1" source="_r9maqkyMBtUnsPMcbrM-58" target="_r9maqkyMBtUnsPMcbrM-64" edge="1">
          <mxGeometry width="50" height="50" relative="1" as="geometry">
            <mxPoint x="410" y="850" as="sourcePoint" />
            <mxPoint x="170" y="970" as="targetPoint" />
          </mxGeometry>
        </mxCell>
        <mxCell id="_r9maqkyMBtUnsPMcbrM-66" value="&lt;font style=&quot;font-size: 16px;&quot;&gt;&amp;lt;&amp;lt;include&amp;gt;&amp;gt;&lt;/font&gt;" style="edgeLabel;html=1;align=center;verticalAlign=middle;resizable=0;points=[];" parent="_r9maqkyMBtUnsPMcbrM-65" vertex="1" connectable="0">
          <mxGeometry x="-0.1192" y="-3" relative="1" as="geometry">
            <mxPoint x="3" as="offset" />
          </mxGeometry>
        </mxCell>
        <mxCell id="_r9maqkyMBtUnsPMcbrM-67" value="" style="endArrow=block;html=1;rounded=0;exitX=0.5;exitY=1;exitDx=0;exitDy=0;entryX=0.5;entryY=0;entryDx=0;entryDy=0;dashed=1;endFill=0;" parent="1" source="_r9maqkyMBtUnsPMcbrM-9" target="_r9maqkyMBtUnsPMcbrM-53" edge="1">
          <mxGeometry width="50" height="50" relative="1" as="geometry">
            <mxPoint x="420" y="860" as="sourcePoint" />
            <mxPoint x="180" y="980" as="targetPoint" />
          </mxGeometry>
        </mxCell>
        <mxCell id="_r9maqkyMBtUnsPMcbrM-68" value="&lt;font style=&quot;font-size: 16px;&quot;&gt;&amp;lt;&amp;lt;include&amp;gt;&amp;gt;&lt;/font&gt;" style="edgeLabel;html=1;align=center;verticalAlign=middle;resizable=0;points=[];" parent="_r9maqkyMBtUnsPMcbrM-67" vertex="1" connectable="0">
          <mxGeometry x="-0.1192" y="-3" relative="1" as="geometry">
            <mxPoint x="6" as="offset" />
          </mxGeometry>
        </mxCell>
        <mxCell id="_r9maqkyMBtUnsPMcbrM-69" value="" style="endArrow=block;html=1;rounded=0;exitX=0.5;exitY=0;exitDx=0;exitDy=0;entryX=1;entryY=1;entryDx=0;entryDy=0;dashed=1;endFill=0;" parent="1" source="_r9maqkyMBtUnsPMcbrM-4" target="_r9maqkyMBtUnsPMcbrM-5" edge="1">
          <mxGeometry width="50" height="50" relative="1" as="geometry">
            <mxPoint x="360" y="-70" as="sourcePoint" />
            <mxPoint x="120" y="50" as="targetPoint" />
          </mxGeometry>
        </mxCell>
        <mxCell id="_r9maqkyMBtUnsPMcbrM-70" value="&lt;font style=&quot;font-size: 16px;&quot;&gt;&amp;lt;&amp;lt;include&amp;gt;&amp;gt;&lt;/font&gt;" style="edgeLabel;html=1;align=center;verticalAlign=middle;resizable=0;points=[];" parent="_r9maqkyMBtUnsPMcbrM-69" vertex="1" connectable="0">
          <mxGeometry x="-0.1192" y="-3" relative="1" as="geometry">
            <mxPoint x="-1" y="-8" as="offset" />
          </mxGeometry>
        </mxCell>
        <mxCell id="_r9maqkyMBtUnsPMcbrM-72" value="" style="endArrow=none;html=1;rounded=0;entryX=0;entryY=0.3333333333333333;entryDx=0;entryDy=0;entryPerimeter=0;exitX=1;exitY=0.5;exitDx=0;exitDy=0;" parent="1" source="_r9maqkyMBtUnsPMcbrM-64" target="_r9maqkyMBtUnsPMcbrM-32" edge="1">
          <mxGeometry width="50" height="50" relative="1" as="geometry">
            <mxPoint x="480" y="580" as="sourcePoint" />
            <mxPoint x="530" y="530" as="targetPoint" />
          </mxGeometry>
        </mxCell>
        <mxCell id="_r9maqkyMBtUnsPMcbrM-73" value="&lt;font style=&quot;font-size: 16px;&quot;&gt;Manager&lt;/font&gt;" style="shape=umlActor;verticalLabelPosition=bottom;verticalAlign=top;html=1;outlineConnect=0;" parent="1" vertex="1">
          <mxGeometry x="1000" y="440" width="60" height="120" as="geometry" />
        </mxCell>
        <mxCell id="_r9maqkyMBtUnsPMcbrM-75" value="" style="endArrow=classic;html=1;rounded=0;entryX=1;entryY=0.3333333333333333;entryDx=0;entryDy=0;entryPerimeter=0;exitX=0;exitY=0.3333333333333333;exitDx=0;exitDy=0;exitPerimeter=0;" parent="1" source="_r9maqkyMBtUnsPMcbrM-73" target="_r9maqkyMBtUnsPMcbrM-32" edge="1">
          <mxGeometry width="50" height="50" relative="1" as="geometry">
            <mxPoint x="480" y="680" as="sourcePoint" />
            <mxPoint x="530" y="630" as="targetPoint" />
          </mxGeometry>
        </mxCell>
        <mxCell id="_r9maqkyMBtUnsPMcbrM-76" value="&lt;font style=&quot;font-size: 16px;&quot;&gt;Add / modify employee&lt;/font&gt;" style="ellipse;whiteSpace=wrap;html=1;" parent="1" vertex="1">
          <mxGeometry x="827" y="560" width="140" height="60" as="geometry" />
        </mxCell>
        <mxCell id="_r9maqkyMBtUnsPMcbrM-77" value="&lt;font style=&quot;font-size: 16px;&quot;&gt;Issue employee card&lt;/font&gt;" style="ellipse;whiteSpace=wrap;html=1;" parent="1" vertex="1">
          <mxGeometry x="827" y="460" width="140" height="60" as="geometry" />
        </mxCell>
        <mxCell id="_r9maqkyMBtUnsPMcbrM-82" value="" style="endArrow=none;html=1;rounded=0;entryX=1;entryY=0.5;entryDx=0;entryDy=0;exitX=0;exitY=0.3333333333333333;exitDx=0;exitDy=0;exitPerimeter=0;strokeWidth=2;fillColor=#ffe6cc;strokeColor=#d79b00;" parent="1" source="_r9maqkyMBtUnsPMcbrM-73" target="_r9maqkyMBtUnsPMcbrM-77" edge="1">
          <mxGeometry width="50" height="50" relative="1" as="geometry">
            <mxPoint x="480" y="490" as="sourcePoint" />
            <mxPoint x="530" y="440" as="targetPoint" />
          </mxGeometry>
        </mxCell>
        <mxCell id="_r9maqkyMBtUnsPMcbrM-83" value="" style="endArrow=none;html=1;rounded=0;entryX=0;entryY=0.3333333333333333;entryDx=0;entryDy=0;entryPerimeter=0;exitX=1;exitY=0.5;exitDx=0;exitDy=0;strokeWidth=2;fillColor=#ffe6cc;strokeColor=#d79b00;" parent="1" source="_r9maqkyMBtUnsPMcbrM-76" target="_r9maqkyMBtUnsPMcbrM-73" edge="1">
          <mxGeometry width="50" height="50" relative="1" as="geometry">
            <mxPoint x="480" y="490" as="sourcePoint" />
            <mxPoint x="530" y="440" as="targetPoint" />
          </mxGeometry>
        </mxCell>
      </root>
    </mxGraphModel>
  </diagram>
  <diagram id="U_dh9laHHZgw0wcTx-mj" name="Page-2">
    <mxGraphModel dx="301" dy="581" grid="1" gridSize="10" guides="1" tooltips="1" connect="1" arrows="1" fold="1" page="1" pageScale="1" pageWidth="827" pageHeight="1169" math="0" shadow="0">
      <root>
        <mxCell id="0" />
        <mxCell id="1" parent="0" />
        <mxCell id="HfvFaznO5EF5d6R5bnov-1" value="A" style="whiteSpace=wrap;html=1;aspect=fixed;fillColor=#66b2ff;strokeColor=#808080;" vertex="1" parent="1">
          <mxGeometry x="80" y="320" width="40" height="40" as="geometry" />
        </mxCell>
        <mxCell id="HfvFaznO5EF5d6R5bnov-2" value="E" style="whiteSpace=wrap;html=1;aspect=fixed;fillColor=#66B2FF;strokeColor=#808080;" vertex="1" parent="1">
          <mxGeometry x="120" y="320" width="40" height="40" as="geometry" />
        </mxCell>
        <mxCell id="HfvFaznO5EF5d6R5bnov-3" value="I" style="whiteSpace=wrap;html=1;aspect=fixed;fillColor=#66B2FF;strokeColor=#808080;" vertex="1" parent="1">
          <mxGeometry x="160" y="320" width="40" height="40" as="geometry" />
        </mxCell>
        <mxCell id="HfvFaznO5EF5d6R5bnov-4" value="U" style="whiteSpace=wrap;html=1;aspect=fixed;fillColor=#66B2FF;strokeColor=#808080;" vertex="1" parent="1">
          <mxGeometry x="240" y="320" width="40" height="40" as="geometry" />
        </mxCell>
        <mxCell id="HfvFaznO5EF5d6R5bnov-5" value="" style="whiteSpace=wrap;html=1;aspect=fixed;fillColor=#ff6666;strokeColor=#808080;" vertex="1" parent="1">
          <mxGeometry x="440" y="140" width="40" height="40" as="geometry" />
        </mxCell>
        <mxCell id="HfvFaznO5EF5d6R5bnov-7" value="" style="endArrow=block;html=1;rounded=0;exitX=1;exitY=0;exitDx=0;exitDy=0;endFill=1;strokeColor=#808080;" edge="1" parent="1" source="HfvFaznO5EF5d6R5bnov-8">
          <mxGeometry width="50" height="50" relative="1" as="geometry">
            <mxPoint x="190" y="240" as="sourcePoint" />
            <mxPoint x="520" y="110" as="targetPoint" />
          </mxGeometry>
        </mxCell>
        <mxCell id="HfvFaznO5EF5d6R5bnov-8" value="" style="whiteSpace=wrap;html=1;aspect=fixed;fillColor=#ff6666;strokeColor=#808080;" vertex="1" parent="1">
          <mxGeometry x="480" y="140" width="40" height="40" as="geometry" />
        </mxCell>
        <mxCell id="HfvFaznO5EF5d6R5bnov-9" value="" style="whiteSpace=wrap;html=1;aspect=fixed;fillColor=#ff6666;strokeColor=#808080;" vertex="1" parent="1">
          <mxGeometry x="520" y="140" width="40" height="40" as="geometry" />
        </mxCell>
        <mxCell id="HfvFaznO5EF5d6R5bnov-10" value="O" style="whiteSpace=wrap;html=1;aspect=fixed;fillColor=#ff6666;strokeColor=#808080;" vertex="1" parent="1">
          <mxGeometry x="200" y="300" width="40" height="40" as="geometry" />
        </mxCell>
        <mxCell id="HfvFaznO5EF5d6R5bnov-11" value="" style="endArrow=block;html=1;rounded=0;exitX=0.5;exitY=0;exitDx=0;exitDy=0;endFill=1;strokeColor=#808080;" edge="1" parent="1" source="HfvFaznO5EF5d6R5bnov-10">
          <mxGeometry width="50" height="50" relative="1" as="geometry">
            <mxPoint x="40" y="280" as="sourcePoint" />
            <mxPoint x="220" y="270" as="targetPoint" />
          </mxGeometry>
        </mxCell>
        <mxCell id="HfvFaznO5EF5d6R5bnov-12" value="Remove &quot;O&quot;" style="text;html=1;strokeColor=none;fillColor=none;align=center;verticalAlign=middle;whiteSpace=wrap;rounded=0;fontColor=#808080;" vertex="1" parent="1">
          <mxGeometry x="110" y="280" width="60" height="30" as="geometry" />
        </mxCell>
        <mxCell id="HfvFaznO5EF5d6R5bnov-13" value="" style="whiteSpace=wrap;html=1;aspect=fixed;fillColor=#66b2ff;strokeColor=#808080;" vertex="1" parent="1">
          <mxGeometry x="280" y="160" width="40" height="40" as="geometry" />
        </mxCell>
        <mxCell id="HfvFaznO5EF5d6R5bnov-14" value="" style="whiteSpace=wrap;html=1;aspect=fixed;fillColor=#66b2ff;strokeColor=#808080;" vertex="1" parent="1">
          <mxGeometry x="320" y="160" width="40" height="40" as="geometry" />
        </mxCell>
        <mxCell id="HfvFaznO5EF5d6R5bnov-15" value="" style="whiteSpace=wrap;html=1;aspect=fixed;fillColor=#66b2ff;strokeColor=#808080;" vertex="1" parent="1">
          <mxGeometry x="360" y="160" width="40" height="40" as="geometry" />
        </mxCell>
        <mxCell id="HfvFaznO5EF5d6R5bnov-16" value="" style="whiteSpace=wrap;html=1;aspect=fixed;fillColor=#66b2ff;strokeColor=#808080;" vertex="1" parent="1">
          <mxGeometry x="400" y="160" width="40" height="40" as="geometry" />
        </mxCell>
        <mxCell id="HfvFaznO5EF5d6R5bnov-17" value="" style="whiteSpace=wrap;html=1;aspect=fixed;fillColor=#66b2ff;strokeColor=#808080;" vertex="1" parent="1">
          <mxGeometry x="600" y="160" width="40" height="40" as="geometry" />
        </mxCell>
        <mxCell id="HfvFaznO5EF5d6R5bnov-18" value="" style="whiteSpace=wrap;html=1;aspect=fixed;fillColor=#66b2ff;strokeColor=#808080;" vertex="1" parent="1">
          <mxGeometry x="240" y="160" width="40" height="40" as="geometry" />
        </mxCell>
        <mxCell id="HfvFaznO5EF5d6R5bnov-19" value="" style="whiteSpace=wrap;html=1;aspect=fixed;fillColor=#ff6666;strokeColor=#808080;" vertex="1" parent="1">
          <mxGeometry x="560" y="140" width="40" height="40" as="geometry" />
        </mxCell>
        <mxCell id="HfvFaznO5EF5d6R5bnov-20" value="Range 5 to 9" style="text;html=1;strokeColor=none;fillColor=none;align=center;verticalAlign=middle;whiteSpace=wrap;rounded=0;fontColor=#808080;" vertex="1" parent="1">
          <mxGeometry x="260" y="120" width="160" height="30" as="geometry" />
        </mxCell>
        <mxCell id="HfvFaznO5EF5d6R5bnov-21" value="Iterable" style="rounded=0;whiteSpace=wrap;html=1;fillColor=#dae8fc;strokeColor=#6c8ebf;" vertex="1" parent="1">
          <mxGeometry x="240" y="560" width="120" height="40" as="geometry" />
        </mxCell>
        <mxCell id="HfvFaznO5EF5d6R5bnov-22" value="Collection" style="rounded=0;whiteSpace=wrap;html=1;fillColor=#dae8fc;strokeColor=#6c8ebf;" vertex="1" parent="1">
          <mxGeometry x="240" y="640" width="120" height="40" as="geometry" />
        </mxCell>
        <mxCell id="HfvFaznO5EF5d6R5bnov-23" value="" style="endArrow=blockThin;html=1;rounded=0;exitX=0.5;exitY=0;exitDx=0;exitDy=0;entryX=0.5;entryY=1;entryDx=0;entryDy=0;endFill=1;fillColor=#dae8fc;strokeColor=#6c8ebf;" edge="1" parent="1" source="HfvFaznO5EF5d6R5bnov-22" target="HfvFaznO5EF5d6R5bnov-21">
          <mxGeometry width="50" height="50" relative="1" as="geometry">
            <mxPoint x="320" y="680" as="sourcePoint" />
            <mxPoint x="370" y="630" as="targetPoint" />
          </mxGeometry>
        </mxCell>
        <mxCell id="HfvFaznO5EF5d6R5bnov-24" value="Queue" style="rounded=0;whiteSpace=wrap;html=1;fillColor=#dae8fc;strokeColor=#6c8ebf;" vertex="1" parent="1">
          <mxGeometry x="400" y="720" width="120" height="40" as="geometry" />
        </mxCell>
        <mxCell id="HfvFaznO5EF5d6R5bnov-25" value="List" style="rounded=0;whiteSpace=wrap;html=1;fillColor=#dae8fc;strokeColor=#6c8ebf;" vertex="1" parent="1">
          <mxGeometry x="80" y="720" width="120" height="40" as="geometry" />
        </mxCell>
        <mxCell id="HfvFaznO5EF5d6R5bnov-26" value="AbstractSequentialList" style="rounded=0;whiteSpace=wrap;html=1;fillColor=#dae8fc;strokeColor=#6c8ebf;" vertex="1" parent="1">
          <mxGeometry x="60" y="800" width="160" height="40" as="geometry" />
        </mxCell>
        <mxCell id="HfvFaznO5EF5d6R5bnov-28" value="Deque" style="rounded=0;whiteSpace=wrap;html=1;fillColor=#dae8fc;strokeColor=#6c8ebf;" vertex="1" parent="1">
          <mxGeometry x="400" y="800" width="120" height="40" as="geometry" />
        </mxCell>
        <mxCell id="HfvFaznO5EF5d6R5bnov-29" value="LinkedList" style="rounded=0;whiteSpace=wrap;html=1;fillColor=#dae8fc;strokeColor=#6c8ebf;" vertex="1" parent="1">
          <mxGeometry x="240" y="880" width="120" height="40" as="geometry" />
        </mxCell>
        <mxCell id="HfvFaznO5EF5d6R5bnov-31" value="" style="endArrow=blockThin;html=1;rounded=0;exitX=0.75;exitY=0;exitDx=0;exitDy=0;entryX=0.5;entryY=1;entryDx=0;entryDy=0;endFill=1;dashed=1;fillColor=#dae8fc;strokeColor=#6c8ebf;" edge="1" parent="1" source="HfvFaznO5EF5d6R5bnov-29" target="HfvFaznO5EF5d6R5bnov-28">
          <mxGeometry width="50" height="50" relative="1" as="geometry">
            <mxPoint x="300" y="880" as="sourcePoint" />
            <mxPoint x="350" y="830" as="targetPoint" />
            <Array as="points">
              <mxPoint x="330" y="860" />
              <mxPoint x="460" y="860" />
            </Array>
          </mxGeometry>
        </mxCell>
        <mxCell id="HfvFaznO5EF5d6R5bnov-32" value="Implements" style="text;html=1;strokeColor=none;fillColor=none;align=center;verticalAlign=middle;whiteSpace=wrap;rounded=0;fontColor=#6C8EBF;" vertex="1" parent="1">
          <mxGeometry x="370" y="870" width="80" height="30" as="geometry" />
        </mxCell>
        <mxCell id="HfvFaznO5EF5d6R5bnov-33" value="Extends" style="text;html=1;strokeColor=none;fillColor=none;align=center;verticalAlign=middle;whiteSpace=wrap;rounded=0;fontColor=#6C8EBF;" vertex="1" parent="1">
          <mxGeometry x="150" y="870" width="80" height="30" as="geometry" />
        </mxCell>
        <mxCell id="HfvFaznO5EF5d6R5bnov-34" value="" style="endArrow=blockThin;html=1;rounded=0;exitX=0.25;exitY=0;exitDx=0;exitDy=0;entryX=0.5;entryY=1;entryDx=0;entryDy=0;endFill=1;fillColor=#dae8fc;strokeColor=#6c8ebf;" edge="1" parent="1" source="HfvFaznO5EF5d6R5bnov-29" target="HfvFaznO5EF5d6R5bnov-26">
          <mxGeometry width="50" height="50" relative="1" as="geometry">
            <mxPoint x="170" y="850" as="sourcePoint" />
            <mxPoint x="220" y="800" as="targetPoint" />
            <Array as="points">
              <mxPoint x="270" y="860" />
              <mxPoint x="140" y="860" />
            </Array>
          </mxGeometry>
        </mxCell>
        <mxCell id="HfvFaznO5EF5d6R5bnov-35" value="" style="endArrow=blockThin;html=1;rounded=0;exitX=0.5;exitY=0;exitDx=0;exitDy=0;entryX=0.5;entryY=1;entryDx=0;entryDy=0;endFill=1;fillColor=#dae8fc;strokeColor=#6c8ebf;" edge="1" parent="1" source="HfvFaznO5EF5d6R5bnov-28" target="HfvFaznO5EF5d6R5bnov-24">
          <mxGeometry width="50" height="50" relative="1" as="geometry">
            <mxPoint x="480" y="880" as="sourcePoint" />
            <mxPoint x="530" y="830" as="targetPoint" />
          </mxGeometry>
        </mxCell>
        <mxCell id="HfvFaznO5EF5d6R5bnov-36" value="Extends" style="text;html=1;strokeColor=none;fillColor=none;align=center;verticalAlign=middle;whiteSpace=wrap;rounded=0;fontColor=#6C8EBF;" vertex="1" parent="1">
          <mxGeometry x="470" y="770" width="60" height="20" as="geometry" />
        </mxCell>
        <mxCell id="HfvFaznO5EF5d6R5bnov-37" value="" style="endArrow=blockThin;html=1;rounded=0;exitX=0.5;exitY=0;exitDx=0;exitDy=0;entryX=0.5;entryY=1;entryDx=0;entryDy=0;endFill=1;dashed=1;fillColor=#dae8fc;strokeColor=#6c8ebf;" edge="1" parent="1" source="HfvFaznO5EF5d6R5bnov-26" target="HfvFaznO5EF5d6R5bnov-25">
          <mxGeometry width="50" height="50" relative="1" as="geometry">
            <mxPoint x="150" y="890" as="sourcePoint" />
            <mxPoint x="200" y="840" as="targetPoint" />
          </mxGeometry>
        </mxCell>
        <mxCell id="HfvFaznO5EF5d6R5bnov-38" value="Implements" style="text;html=1;strokeColor=none;fillColor=none;align=center;verticalAlign=middle;whiteSpace=wrap;rounded=0;fontColor=#6C8EBF;" vertex="1" parent="1">
          <mxGeometry x="60" y="770" width="70" height="20" as="geometry" />
        </mxCell>
        <mxCell id="HfvFaznO5EF5d6R5bnov-39" value="Extends" style="text;html=1;strokeColor=none;fillColor=none;align=center;verticalAlign=middle;whiteSpace=wrap;rounded=0;fontColor=#6C8EBF;" vertex="1" parent="1">
          <mxGeometry x="310" y="610" width="60" height="20" as="geometry" />
        </mxCell>
        <mxCell id="HfvFaznO5EF5d6R5bnov-40" value="" style="endArrow=blockThin;html=1;rounded=0;exitX=0.5;exitY=0;exitDx=0;exitDy=0;entryX=0.5;entryY=1;entryDx=0;entryDy=0;endFill=1;fillColor=#dae8fc;strokeColor=#6c8ebf;" edge="1" parent="1" source="HfvFaznO5EF5d6R5bnov-25" target="HfvFaznO5EF5d6R5bnov-22">
          <mxGeometry width="50" height="50" relative="1" as="geometry">
            <mxPoint x="230" y="760" as="sourcePoint" />
            <mxPoint x="280" y="710" as="targetPoint" />
            <Array as="points">
              <mxPoint x="140" y="700" />
              <mxPoint x="300" y="700" />
            </Array>
          </mxGeometry>
        </mxCell>
        <mxCell id="HfvFaznO5EF5d6R5bnov-41" value="" style="endArrow=blockThin;html=1;rounded=0;exitX=0.5;exitY=0;exitDx=0;exitDy=0;entryX=0.5;entryY=1;entryDx=0;entryDy=0;endFill=1;fillColor=#dae8fc;strokeColor=#6c8ebf;" edge="1" parent="1" source="HfvFaznO5EF5d6R5bnov-24" target="HfvFaznO5EF5d6R5bnov-22">
          <mxGeometry width="50" height="50" relative="1" as="geometry">
            <mxPoint x="370" y="750" as="sourcePoint" />
            <mxPoint x="420" y="700" as="targetPoint" />
            <Array as="points">
              <mxPoint x="460" y="700" />
              <mxPoint x="300" y="700" />
            </Array>
          </mxGeometry>
        </mxCell>
        <mxCell id="HfvFaznO5EF5d6R5bnov-42" value="Extends" style="text;html=1;strokeColor=none;fillColor=none;align=center;verticalAlign=middle;whiteSpace=wrap;rounded=0;fontColor=#6C8EBF;" vertex="1" parent="1">
          <mxGeometry x="470" y="690" width="60" height="20" as="geometry" />
        </mxCell>
        <mxCell id="HfvFaznO5EF5d6R5bnov-43" value="Extends" style="text;html=1;strokeColor=none;fillColor=none;align=center;verticalAlign=middle;whiteSpace=wrap;rounded=0;fontColor=#6C8EBF;" vertex="1" parent="1">
          <mxGeometry x="70" y="690" width="60" height="20" as="geometry" />
        </mxCell>
        <mxCell id="HfvFaznO5EF5d6R5bnov-44" value="4000" style="rounded=0;whiteSpace=wrap;html=1;fillColor=#dae8fc;strokeColor=#6c8ebf;" vertex="1" parent="1">
          <mxGeometry x="600" y="1240" width="80" height="40" as="geometry" />
        </mxCell>
        <mxCell id="HfvFaznO5EF5d6R5bnov-45" value="null" style="rounded=0;whiteSpace=wrap;html=1;fillColor=#dae8fc;strokeColor=#6c8ebf;" vertex="1" parent="1">
          <mxGeometry x="720" y="1240" width="80" height="40" as="geometry" />
        </mxCell>
        <mxCell id="HfvFaznO5EF5d6R5bnov-46" value="15" style="rounded=0;whiteSpace=wrap;html=1;fillColor=#1ba1e2;fontColor=#ffffff;strokeColor=#006EAF;" vertex="1" parent="1">
          <mxGeometry x="800" y="1240" width="40" height="40" as="geometry" />
        </mxCell>
        <mxCell id="HfvFaznO5EF5d6R5bnov-47" value="4004" style="rounded=0;whiteSpace=wrap;html=1;fillColor=#dae8fc;strokeColor=#6c8ebf;" vertex="1" parent="1">
          <mxGeometry x="840" y="1240" width="80" height="40" as="geometry" />
        </mxCell>
        <mxCell id="HfvFaznO5EF5d6R5bnov-48" value="4000" style="rounded=0;whiteSpace=wrap;html=1;fillColor=#dae8fc;strokeColor=#6c8ebf;" vertex="1" parent="1">
          <mxGeometry x="960" y="1240" width="80" height="40" as="geometry" />
        </mxCell>
        <mxCell id="HfvFaznO5EF5d6R5bnov-49" value="56" style="rounded=0;whiteSpace=wrap;html=1;fillColor=#1ba1e2;fontColor=#ffffff;strokeColor=#006EAF;" vertex="1" parent="1">
          <mxGeometry x="1040" y="1240" width="40" height="40" as="geometry" />
        </mxCell>
        <mxCell id="HfvFaznO5EF5d6R5bnov-50" value="4008" style="rounded=0;whiteSpace=wrap;html=1;fillColor=#dae8fc;strokeColor=#6c8ebf;" vertex="1" parent="1">
          <mxGeometry x="1080" y="1240" width="80" height="40" as="geometry" />
        </mxCell>
        <mxCell id="HfvFaznO5EF5d6R5bnov-54" value="4004" style="rounded=0;whiteSpace=wrap;html=1;fillColor=#dae8fc;strokeColor=#6c8ebf;" vertex="1" parent="1">
          <mxGeometry x="1200" y="1240" width="80" height="40" as="geometry" />
        </mxCell>
        <mxCell id="HfvFaznO5EF5d6R5bnov-55" value="76" style="rounded=0;whiteSpace=wrap;html=1;fillColor=#1ba1e2;fontColor=#ffffff;strokeColor=#006EAF;" vertex="1" parent="1">
          <mxGeometry x="1280" y="1240" width="40" height="40" as="geometry" />
        </mxCell>
        <mxCell id="HfvFaznO5EF5d6R5bnov-56" value="null" style="rounded=0;whiteSpace=wrap;html=1;fillColor=#dae8fc;strokeColor=#6c8ebf;" vertex="1" parent="1">
          <mxGeometry x="1320" y="1240" width="80" height="40" as="geometry" />
        </mxCell>
        <mxCell id="HfvFaznO5EF5d6R5bnov-57" value="4000" style="rounded=1;whiteSpace=wrap;html=1;fillColor=#eeeeee;strokeColor=#36393d;" vertex="1" parent="1">
          <mxGeometry x="780" y="1300" width="80" height="40" as="geometry" />
        </mxCell>
        <mxCell id="HfvFaznO5EF5d6R5bnov-58" value="4004" style="rounded=1;whiteSpace=wrap;html=1;fillColor=#eeeeee;strokeColor=#36393d;" vertex="1" parent="1">
          <mxGeometry x="1020" y="1300" width="80" height="40" as="geometry" />
        </mxCell>
        <mxCell id="HfvFaznO5EF5d6R5bnov-59" value="4008" style="rounded=1;whiteSpace=wrap;html=1;fillColor=#eeeeee;strokeColor=#36393d;" vertex="1" parent="1">
          <mxGeometry x="1260" y="1300" width="80" height="40" as="geometry" />
        </mxCell>
        <mxCell id="HfvFaznO5EF5d6R5bnov-60" value="" style="endArrow=openThin;html=1;rounded=0;exitX=0;exitY=0.25;exitDx=0;exitDy=0;entryX=1;entryY=0.25;entryDx=0;entryDy=0;endFill=0;strokeColor=#808080;" edge="1" parent="1" source="HfvFaznO5EF5d6R5bnov-45" target="HfvFaznO5EF5d6R5bnov-44">
          <mxGeometry width="50" height="50" relative="1" as="geometry">
            <mxPoint x="670" y="1230" as="sourcePoint" />
            <mxPoint x="720" y="1180" as="targetPoint" />
          </mxGeometry>
        </mxCell>
        <mxCell id="HfvFaznO5EF5d6R5bnov-61" value="" style="endArrow=openThin;html=1;rounded=0;exitX=1;exitY=0.75;exitDx=0;exitDy=0;entryX=0;entryY=0.75;entryDx=0;entryDy=0;endFill=0;strokeColor=#808080;" edge="1" parent="1" source="HfvFaznO5EF5d6R5bnov-44" target="HfvFaznO5EF5d6R5bnov-45">
          <mxGeometry width="50" height="50" relative="1" as="geometry">
            <mxPoint x="670" y="1230" as="sourcePoint" />
            <mxPoint x="720" y="1180" as="targetPoint" />
          </mxGeometry>
        </mxCell>
        <mxCell id="HfvFaznO5EF5d6R5bnov-62" value="" style="endArrow=openThin;html=1;rounded=0;exitX=1;exitY=0.75;exitDx=0;exitDy=0;entryX=0;entryY=0.75;entryDx=0;entryDy=0;endFill=0;strokeColor=#808080;" edge="1" parent="1" source="HfvFaznO5EF5d6R5bnov-47" target="HfvFaznO5EF5d6R5bnov-48">
          <mxGeometry width="50" height="50" relative="1" as="geometry">
            <mxPoint x="930" y="1270" as="sourcePoint" />
            <mxPoint x="980" y="1220" as="targetPoint" />
          </mxGeometry>
        </mxCell>
        <mxCell id="HfvFaznO5EF5d6R5bnov-63" value="" style="endArrow=openThin;html=1;rounded=0;exitX=1;exitY=0.75;exitDx=0;exitDy=0;entryX=0;entryY=0.75;entryDx=0;entryDy=0;endFill=0;strokeColor=#808080;" edge="1" parent="1" source="HfvFaznO5EF5d6R5bnov-50" target="HfvFaznO5EF5d6R5bnov-54">
          <mxGeometry width="50" height="50" relative="1" as="geometry">
            <mxPoint x="1220" y="1330" as="sourcePoint" />
            <mxPoint x="1270" y="1280" as="targetPoint" />
          </mxGeometry>
        </mxCell>
        <mxCell id="HfvFaznO5EF5d6R5bnov-64" value="" style="endArrow=openThin;html=1;rounded=0;exitX=0;exitY=0.25;exitDx=0;exitDy=0;entryX=1;entryY=0.25;entryDx=0;entryDy=0;endFill=0;strokeColor=#808080;" edge="1" parent="1" source="HfvFaznO5EF5d6R5bnov-54" target="HfvFaznO5EF5d6R5bnov-50">
          <mxGeometry width="50" height="50" relative="1" as="geometry">
            <mxPoint x="1140" y="1280" as="sourcePoint" />
            <mxPoint x="1190" y="1230" as="targetPoint" />
          </mxGeometry>
        </mxCell>
        <mxCell id="HfvFaznO5EF5d6R5bnov-65" value="" style="endArrow=openThin;html=1;rounded=0;exitX=0;exitY=0.25;exitDx=0;exitDy=0;entryX=1;entryY=0.25;entryDx=0;entryDy=0;endFill=0;strokeColor=#808080;" edge="1" parent="1" source="HfvFaznO5EF5d6R5bnov-48" target="HfvFaznO5EF5d6R5bnov-47">
          <mxGeometry width="50" height="50" relative="1" as="geometry">
            <mxPoint x="920" y="1270" as="sourcePoint" />
            <mxPoint x="970" y="1220" as="targetPoint" />
          </mxGeometry>
        </mxCell>
        <mxCell id="HfvFaznO5EF5d6R5bnov-66" value="&lt;font style=&quot;font-size: 13px;&quot;&gt;Head&lt;/font&gt;" style="ellipse;whiteSpace=wrap;html=1;fillColor=#eeeeee;strokeColor=#36393d;" vertex="1" parent="1">
          <mxGeometry x="600" y="1160" width="80" height="40" as="geometry" />
        </mxCell>
        <mxCell id="HfvFaznO5EF5d6R5bnov-67" value="" style="endArrow=openThin;html=1;rounded=0;exitX=0.5;exitY=1;exitDx=0;exitDy=0;endFill=0;" edge="1" parent="1" source="HfvFaznO5EF5d6R5bnov-66" target="HfvFaznO5EF5d6R5bnov-44">
          <mxGeometry width="50" height="50" relative="1" as="geometry">
            <mxPoint x="590" y="1240" as="sourcePoint" />
            <mxPoint x="640" y="1190" as="targetPoint" />
          </mxGeometry>
        </mxCell>
        <mxCell id="HfvFaznO5EF5d6R5bnov-68" value="&lt;font style=&quot;font-size: 13px;&quot;&gt;Addess of previous node&lt;/font&gt;" style="ellipse;whiteSpace=wrap;html=1;fillColor=#eeeeee;strokeColor=#36393d;" vertex="1" parent="1">
          <mxGeometry x="920" y="1120" width="80" height="80" as="geometry" />
        </mxCell>
        <mxCell id="HfvFaznO5EF5d6R5bnov-69" value="&lt;font style=&quot;font-size: 13px;&quot;&gt;Address of next node&lt;/font&gt;" style="ellipse;whiteSpace=wrap;html=1;fillColor=#eeeeee;strokeColor=#36393d;" vertex="1" parent="1">
          <mxGeometry x="1120" y="1120" width="80" height="80" as="geometry" />
        </mxCell>
        <mxCell id="HfvFaznO5EF5d6R5bnov-70" value="&lt;font style=&quot;font-size: 13px;&quot;&gt;Value&lt;/font&gt;" style="ellipse;whiteSpace=wrap;html=1;fillColor=#eeeeee;strokeColor=#36393d;" vertex="1" parent="1">
          <mxGeometry x="1030" y="1140" width="60" height="60" as="geometry" />
        </mxCell>
        <mxCell id="HfvFaznO5EF5d6R5bnov-71" value="" style="endArrow=openThin;html=1;rounded=0;exitX=0.5;exitY=1;exitDx=0;exitDy=0;entryX=0.5;entryY=0;entryDx=0;entryDy=0;endFill=0;strokeColor=#808080;" edge="1" parent="1" source="HfvFaznO5EF5d6R5bnov-68" target="HfvFaznO5EF5d6R5bnov-48">
          <mxGeometry width="50" height="50" relative="1" as="geometry">
            <mxPoint x="1050" y="1310" as="sourcePoint" />
            <mxPoint x="1100" y="1260" as="targetPoint" />
          </mxGeometry>
        </mxCell>
        <mxCell id="HfvFaznO5EF5d6R5bnov-72" value="" style="endArrow=openThin;html=1;rounded=0;exitX=0.5;exitY=1;exitDx=0;exitDy=0;entryX=0.5;entryY=0;entryDx=0;entryDy=0;endFill=0;strokeColor=#808080;" edge="1" parent="1" source="HfvFaznO5EF5d6R5bnov-69" target="HfvFaznO5EF5d6R5bnov-50">
          <mxGeometry width="50" height="50" relative="1" as="geometry">
            <mxPoint x="1050" y="1310" as="sourcePoint" />
            <mxPoint x="1100" y="1260" as="targetPoint" />
          </mxGeometry>
        </mxCell>
        <mxCell id="HfvFaznO5EF5d6R5bnov-73" value="" style="endArrow=openThin;html=1;rounded=0;exitX=0.5;exitY=1;exitDx=0;exitDy=0;entryX=0.5;entryY=0;entryDx=0;entryDy=0;endFill=0;strokeColor=#808080;" edge="1" parent="1" source="HfvFaznO5EF5d6R5bnov-70" target="HfvFaznO5EF5d6R5bnov-49">
          <mxGeometry width="50" height="50" relative="1" as="geometry">
            <mxPoint x="1050" y="1310" as="sourcePoint" />
            <mxPoint x="1100" y="1260" as="targetPoint" />
          </mxGeometry>
        </mxCell>
      </root>
    </mxGraphModel>
  </diagram>
  <diagram id="3EJOmvLEOHvNjKCs0rHB" name="Page-3">
    <mxGraphModel dx="3547" dy="2855" grid="1" gridSize="10" guides="1" tooltips="1" connect="1" arrows="1" fold="1" page="1" pageScale="1" pageWidth="827" pageHeight="1169" math="0" shadow="0">
      <root>
        <mxCell id="0" />
        <mxCell id="1" parent="0" />
        <mxCell id="Ob1G8lW7mT5lAiAhJuhH-58" value="" style="rounded=0;whiteSpace=wrap;html=1;" vertex="1" parent="1">
          <mxGeometry x="-760" y="80" width="240" height="100" as="geometry" />
        </mxCell>
        <mxCell id="Ob1G8lW7mT5lAiAhJuhH-52" value="" style="rounded=0;whiteSpace=wrap;html=1;" vertex="1" parent="1">
          <mxGeometry x="-750" y="-220" width="220" height="260" as="geometry" />
        </mxCell>
        <mxCell id="Ob1G8lW7mT5lAiAhJuhH-1" value="&lt;font style=&quot;font-size: 16px;&quot;&gt;Iterable&lt;/font&gt;" style="rounded=0;whiteSpace=wrap;html=1;fontFamily=Helvetica;fillColor=#d5e8d4;strokeColor=#82b366;" vertex="1" parent="1">
          <mxGeometry x="-760" y="240" width="80" height="40" as="geometry" />
        </mxCell>
        <mxCell id="Ob1G8lW7mT5lAiAhJuhH-2" value="&lt;font style=&quot;font-size: 16px;&quot;&gt;Collection&lt;/font&gt;" style="rounded=0;whiteSpace=wrap;html=1;fontFamily=Helvetica;fillColor=#d5e8d4;strokeColor=#82b366;" vertex="1" parent="1">
          <mxGeometry x="-600" y="240" width="80" height="40" as="geometry" />
        </mxCell>
        <mxCell id="Ob1G8lW7mT5lAiAhJuhH-3" value="&lt;font style=&quot;font-size: 16px;&quot;&gt;Queue&lt;/font&gt;" style="rounded=0;whiteSpace=wrap;html=1;fontFamily=Helvetica;fillColor=#d5e8d4;strokeColor=#82b366;" vertex="1" parent="1">
          <mxGeometry x="-320" y="40" width="80" height="40" as="geometry" />
        </mxCell>
        <mxCell id="Ob1G8lW7mT5lAiAhJuhH-4" value="&lt;font style=&quot;font-size: 16px;&quot;&gt;Set&lt;/font&gt;" style="rounded=0;whiteSpace=wrap;html=1;fontFamily=Helvetica;fillColor=#d5e8d4;strokeColor=#82b366;" vertex="1" parent="1">
          <mxGeometry x="-320" y="360" width="80" height="40" as="geometry" />
        </mxCell>
        <mxCell id="Ob1G8lW7mT5lAiAhJuhH-5" value="&lt;font style=&quot;font-size: 16px;&quot;&gt;List&lt;/font&gt;" style="rounded=0;whiteSpace=wrap;html=1;fontFamily=Helvetica;fillColor=#d5e8d4;strokeColor=#82b366;" vertex="1" parent="1">
          <mxGeometry x="-320" y="580" width="80" height="40" as="geometry" />
        </mxCell>
        <mxCell id="Ob1G8lW7mT5lAiAhJuhH-6" value="&lt;font style=&quot;font-size: 16px;&quot;&gt;Deque&lt;/font&gt;" style="rounded=0;whiteSpace=wrap;html=1;fontFamily=Helvetica;fillColor=#d5e8d4;strokeColor=#82b366;" vertex="1" parent="1">
          <mxGeometry x="-320" y="-80" width="80" height="40" as="geometry" />
        </mxCell>
        <mxCell id="Ob1G8lW7mT5lAiAhJuhH-14" value="&lt;font style=&quot;font-size: 16px;&quot;&gt;ArrayList&lt;/font&gt;" style="rounded=0;whiteSpace=wrap;html=1;fontFamily=Helvetica;fillColor=#ffe6cc;strokeColor=#d79b00;" vertex="1" parent="1">
          <mxGeometry x="360" y="700" width="120" height="40" as="geometry" />
        </mxCell>
        <mxCell id="Ob1G8lW7mT5lAiAhJuhH-15" value="&lt;font style=&quot;font-size: 16px;&quot;&gt;LinkedList&lt;/font&gt;" style="rounded=0;whiteSpace=wrap;html=1;fontFamily=Helvetica;fillColor=#ffe6cc;strokeColor=#d79b00;" vertex="1" parent="1">
          <mxGeometry x="680" y="-80" width="80" height="40" as="geometry" />
        </mxCell>
        <mxCell id="Ob1G8lW7mT5lAiAhJuhH-16" value="&lt;font style=&quot;font-size: 16px;&quot;&gt;Vector&lt;/font&gt;" style="rounded=0;whiteSpace=wrap;html=1;fontFamily=Helvetica;fillColor=#ffe6cc;strokeColor=#d79b00;" vertex="1" parent="1">
          <mxGeometry x="360" y="820" width="120" height="40" as="geometry" />
        </mxCell>
        <mxCell id="Ob1G8lW7mT5lAiAhJuhH-17" value="&lt;font style=&quot;font-size: 16px;&quot;&gt;Stack&lt;/font&gt;" style="rounded=0;whiteSpace=wrap;html=1;fontFamily=Helvetica;fillColor=#ffe6cc;strokeColor=#d79b00;" vertex="1" parent="1">
          <mxGeometry x="560" y="820" width="120" height="40" as="geometry" />
        </mxCell>
        <mxCell id="Ob1G8lW7mT5lAiAhJuhH-19" value="" style="endArrow=blockThin;html=1;rounded=0;exitX=0;exitY=0.5;exitDx=0;exitDy=0;entryX=1;entryY=0.5;entryDx=0;entryDy=0;fontFamily=Helvetica;fillColor=#f8cecc;strokeColor=#b85450;endFill=1;" edge="1" parent="1" source="Ob1G8lW7mT5lAiAhJuhH-17" target="Ob1G8lW7mT5lAiAhJuhH-16">
          <mxGeometry width="50" height="50" relative="1" as="geometry">
            <mxPoint x="230" y="1690" as="sourcePoint" />
            <mxPoint x="280" y="1640" as="targetPoint" />
          </mxGeometry>
        </mxCell>
        <mxCell id="Ob1G8lW7mT5lAiAhJuhH-24" value="&lt;font style=&quot;font-size: 16px;&quot;&gt;ArrayDeque&lt;/font&gt;" style="rounded=0;whiteSpace=wrap;html=1;fontFamily=Helvetica;fillColor=#ffe6cc;strokeColor=#d79b00;" vertex="1" parent="1">
          <mxGeometry x="-340" y="-200" width="120" height="40" as="geometry" />
        </mxCell>
        <mxCell id="Ob1G8lW7mT5lAiAhJuhH-26" value="&lt;font style=&quot;font-size: 16px;&quot;&gt;HashSet&lt;/font&gt;" style="rounded=0;whiteSpace=wrap;html=1;fontFamily=Helvetica;fillColor=#ffe6cc;strokeColor=#d79b00;" vertex="1" parent="1">
          <mxGeometry x="360" y="360" width="80" height="40" as="geometry" />
        </mxCell>
        <mxCell id="Ob1G8lW7mT5lAiAhJuhH-28" value="&lt;font style=&quot;font-size: 16px;&quot;&gt;LinkedHashSet&lt;/font&gt;" style="rounded=0;whiteSpace=wrap;html=1;fontFamily=Helvetica;fillColor=#ffe6cc;strokeColor=#d79b00;" vertex="1" parent="1">
          <mxGeometry x="520" y="360" width="120" height="40" as="geometry" />
        </mxCell>
        <mxCell id="Ob1G8lW7mT5lAiAhJuhH-32" value="&lt;font style=&quot;font-size: 16px;&quot;&gt;SortedSet&lt;/font&gt;" style="rounded=0;whiteSpace=wrap;html=1;fontFamily=Helvetica;fillColor=#d5e8d4;strokeColor=#82b366;" vertex="1" parent="1">
          <mxGeometry x="-320" y="240" width="80" height="40" as="geometry" />
        </mxCell>
        <mxCell id="Ob1G8lW7mT5lAiAhJuhH-34" value="&lt;font style=&quot;font-size: 16px;&quot;&gt;TreeSet&lt;/font&gt;" style="rounded=0;whiteSpace=wrap;html=1;fontFamily=Helvetica;fillColor=#ffe6cc;strokeColor=#d79b00;" vertex="1" parent="1">
          <mxGeometry x="360" y="240" width="80" height="40" as="geometry" />
        </mxCell>
        <mxCell id="Ob1G8lW7mT5lAiAhJuhH-35" value="" style="endArrow=blockThin;html=1;rounded=0;entryX=1;entryY=0.5;entryDx=0;entryDy=0;dashed=1;fontFamily=Helvetica;fillColor=#f8cecc;strokeColor=#b85450;exitX=0.5;exitY=0;exitDx=0;exitDy=0;endFill=1;" edge="1" parent="1" source="Ob1G8lW7mT5lAiAhJuhH-34" target="Jp9OR_NbhEC4RY8J0OJZ-16">
          <mxGeometry width="50" height="50" relative="1" as="geometry">
            <mxPoint x="280" y="130" as="sourcePoint" />
            <mxPoint x="500" y="910" as="targetPoint" />
            <Array as="points">
              <mxPoint x="400" y="160" />
            </Array>
          </mxGeometry>
        </mxCell>
        <mxCell id="Ob1G8lW7mT5lAiAhJuhH-36" value="&lt;font style=&quot;font-size: 16px;&quot;&gt;Map&lt;/font&gt;" style="rounded=0;whiteSpace=wrap;html=1;fillColor=#d5e8d4;strokeColor=#82b366;" vertex="1" parent="1">
          <mxGeometry x="1080" width="80" height="40" as="geometry" />
        </mxCell>
        <mxCell id="Ob1G8lW7mT5lAiAhJuhH-37" value="HashTable" style="rounded=0;whiteSpace=wrap;html=1;fontSize=16;fillColor=#ffe6cc;strokeColor=#d79b00;" vertex="1" parent="1">
          <mxGeometry x="880" width="120" height="40" as="geometry" />
        </mxCell>
        <mxCell id="Ob1G8lW7mT5lAiAhJuhH-38" value="LinkedHashMap" style="rounded=0;whiteSpace=wrap;html=1;fontSize=16;fillColor=#ffe6cc;strokeColor=#d79b00;" vertex="1" parent="1">
          <mxGeometry x="1680" width="140" height="40" as="geometry" />
        </mxCell>
        <mxCell id="Ob1G8lW7mT5lAiAhJuhH-39" value="HashMap" style="rounded=0;whiteSpace=wrap;html=1;fontSize=16;fillColor=#ffe6cc;strokeColor=#d79b00;" vertex="1" parent="1">
          <mxGeometry x="1480" width="120" height="40" as="geometry" />
        </mxCell>
        <mxCell id="Ob1G8lW7mT5lAiAhJuhH-44" value="&lt;font style=&quot;font-size: 16px;&quot;&gt;SortedMap&lt;/font&gt;" style="rounded=0;whiteSpace=wrap;html=1;fillColor=#d5e8d4;strokeColor=#82b366;" vertex="1" parent="1">
          <mxGeometry x="1070.5" y="120" width="99" height="40" as="geometry" />
        </mxCell>
        <mxCell id="Ob1G8lW7mT5lAiAhJuhH-45" value="&lt;font style=&quot;font-size: 16px;&quot;&gt;TreeMap&lt;/font&gt;" style="rounded=0;whiteSpace=wrap;html=1;fillColor=#ffe6cc;strokeColor=#d79b00;" vertex="1" parent="1">
          <mxGeometry x="1270" y="120" width="120" height="40" as="geometry" />
        </mxCell>
        <mxCell id="Ob1G8lW7mT5lAiAhJuhH-48" value="" style="rounded=0;whiteSpace=wrap;html=1;fillColor=#d5e8d4;strokeColor=#82b366;" vertex="1" parent="1">
          <mxGeometry x="-730" y="-200" width="60" height="20" as="geometry" />
        </mxCell>
        <mxCell id="Ob1G8lW7mT5lAiAhJuhH-49" value="" style="rounded=0;whiteSpace=wrap;html=1;fillColor=#ffe6cc;strokeColor=#d79b00;" vertex="1" parent="1">
          <mxGeometry x="-730" y="-160" width="60" height="20" as="geometry" />
        </mxCell>
        <mxCell id="Ob1G8lW7mT5lAiAhJuhH-50" value="" style="endArrow=classic;html=1;rounded=0;dashed=1;fillColor=#f8cecc;strokeColor=#b85450;" edge="1" parent="1">
          <mxGeometry width="50" height="50" relative="1" as="geometry">
            <mxPoint x="-700" y="-40" as="sourcePoint" />
            <mxPoint x="-700" y="-80" as="targetPoint" />
          </mxGeometry>
        </mxCell>
        <mxCell id="Ob1G8lW7mT5lAiAhJuhH-51" value="" style="endArrow=classic;html=1;rounded=0;fillColor=#f8cecc;strokeColor=#b85450;" edge="1" parent="1">
          <mxGeometry width="50" height="50" relative="1" as="geometry">
            <mxPoint x="-700.2" y="20" as="sourcePoint" />
            <mxPoint x="-700.2" y="-20" as="targetPoint" />
          </mxGeometry>
        </mxCell>
        <mxCell id="Ob1G8lW7mT5lAiAhJuhH-53" value="&lt;font style=&quot;font-size: 16px;&quot;&gt;Interface&lt;/font&gt;" style="text;html=1;strokeColor=none;fillColor=none;align=left;verticalAlign=middle;whiteSpace=wrap;rounded=0;" vertex="1" parent="1">
          <mxGeometry x="-660" y="-200" width="80" height="20" as="geometry" />
        </mxCell>
        <mxCell id="Ob1G8lW7mT5lAiAhJuhH-54" value="&lt;font style=&quot;font-size: 16px;&quot;&gt;Class&lt;/font&gt;" style="text;html=1;strokeColor=none;fillColor=none;align=left;verticalAlign=middle;whiteSpace=wrap;rounded=0;" vertex="1" parent="1">
          <mxGeometry x="-660" y="-160" width="80" height="20" as="geometry" />
        </mxCell>
        <mxCell id="Ob1G8lW7mT5lAiAhJuhH-55" value="&lt;font style=&quot;font-size: 16px;&quot;&gt;Implements&lt;/font&gt;" style="text;html=1;strokeColor=none;fillColor=none;align=left;verticalAlign=middle;whiteSpace=wrap;rounded=0;" vertex="1" parent="1">
          <mxGeometry x="-660" y="-70" width="80" height="20" as="geometry" />
        </mxCell>
        <mxCell id="Ob1G8lW7mT5lAiAhJuhH-56" value="&lt;font style=&quot;font-size: 16px;&quot;&gt;Extends&lt;/font&gt;" style="text;html=1;strokeColor=none;fillColor=none;align=left;verticalAlign=middle;whiteSpace=wrap;rounded=0;" vertex="1" parent="1">
          <mxGeometry x="-660" y="-10" width="80" height="20" as="geometry" />
        </mxCell>
        <mxCell id="Ob1G8lW7mT5lAiAhJuhH-57" value="&lt;font style=&quot;font-size: 16px;&quot;&gt;&lt;b&gt;Collection Framework Hierarchy in Java&lt;/b&gt;&lt;/font&gt;" style="text;html=1;strokeColor=none;fillColor=none;align=center;verticalAlign=middle;whiteSpace=wrap;rounded=0;" vertex="1" parent="1">
          <mxGeometry x="-760" y="80" width="240" height="100" as="geometry" />
        </mxCell>
        <mxCell id="gDzynxHSFNQ0-ALjwcSn-1" value="" style="endArrow=blockThin;html=1;rounded=0;entryX=1;entryY=0.5;entryDx=0;entryDy=0;exitX=0;exitY=0.5;exitDx=0;exitDy=0;endFill=1;fillColor=#f8cecc;strokeColor=#b85450;" edge="1" parent="1" source="Ob1G8lW7mT5lAiAhJuhH-2" target="Ob1G8lW7mT5lAiAhJuhH-1">
          <mxGeometry width="50" height="50" relative="1" as="geometry">
            <mxPoint x="-270" y="340" as="sourcePoint" />
            <mxPoint x="-220" y="290" as="targetPoint" />
          </mxGeometry>
        </mxCell>
        <mxCell id="gDzynxHSFNQ0-ALjwcSn-3" value="&lt;font style=&quot;font-size: 16px;&quot;&gt;AbstractCollection&lt;/font&gt;" style="rounded=0;whiteSpace=wrap;html=1;fontFamily=Helvetica;fillColor=#dae8fc;strokeColor=#6c8ebf;" vertex="1" parent="1">
          <mxGeometry x="-430" y="700" width="140" height="40" as="geometry" />
        </mxCell>
        <mxCell id="gDzynxHSFNQ0-ALjwcSn-5" value="&lt;font style=&quot;font-size: 16px;&quot;&gt;AbstractList&lt;/font&gt;" style="rounded=0;whiteSpace=wrap;html=1;fontFamily=Helvetica;fillColor=#dae8fc;strokeColor=#6c8ebf;" vertex="1" parent="1">
          <mxGeometry x="180" y="580" width="100" height="40" as="geometry" />
        </mxCell>
        <mxCell id="gDzynxHSFNQ0-ALjwcSn-7" value="&lt;font style=&quot;font-size: 16px;&quot;&gt;AbstractSequentialList&lt;/font&gt;" style="rounded=0;whiteSpace=wrap;html=1;fontFamily=Helvetica;fillColor=#dae8fc;strokeColor=#6c8ebf;" vertex="1" parent="1">
          <mxGeometry x="360" y="580" width="180" height="40" as="geometry" />
        </mxCell>
        <mxCell id="gDzynxHSFNQ0-ALjwcSn-10" value="" style="endArrow=blockThin;html=1;rounded=0;exitX=0.5;exitY=1;exitDx=0;exitDy=0;entryX=1;entryY=0.5;entryDx=0;entryDy=0;endFill=1;fillColor=#f8cecc;strokeColor=#b85450;" edge="1" parent="1" source="Ob1G8lW7mT5lAiAhJuhH-15" target="gDzynxHSFNQ0-ALjwcSn-7">
          <mxGeometry width="50" height="50" relative="1" as="geometry">
            <mxPoint x="490" y="240" as="sourcePoint" />
            <mxPoint x="800" y="440" as="targetPoint" />
            <Array as="points">
              <mxPoint x="720" y="600" />
            </Array>
          </mxGeometry>
        </mxCell>
        <mxCell id="gsHY0I-0n19P9BkGbzPg-1" value="" style="endArrow=blockThin;html=1;rounded=0;entryX=1;entryY=0.5;entryDx=0;entryDy=0;exitX=0;exitY=0.5;exitDx=0;exitDy=0;endFill=1;fillColor=#f8cecc;strokeColor=#b85450;" edge="1" parent="1" source="gDzynxHSFNQ0-ALjwcSn-7" target="gDzynxHSFNQ0-ALjwcSn-5">
          <mxGeometry width="50" height="50" relative="1" as="geometry">
            <mxPoint x="660" y="240" as="sourcePoint" />
            <mxPoint x="710" y="190" as="targetPoint" />
            <Array as="points" />
          </mxGeometry>
        </mxCell>
        <mxCell id="gsHY0I-0n19P9BkGbzPg-2" value="" style="endArrow=none;html=1;rounded=0;exitX=0;exitY=0.5;exitDx=0;exitDy=0;endFill=0;fillColor=#f8cecc;strokeColor=#b85450;" edge="1" parent="1" source="Ob1G8lW7mT5lAiAhJuhH-16">
          <mxGeometry width="50" height="50" relative="1" as="geometry">
            <mxPoint x="740" y="740" as="sourcePoint" />
            <mxPoint x="320" y="720" as="targetPoint" />
            <Array as="points">
              <mxPoint x="320" y="840" />
            </Array>
          </mxGeometry>
        </mxCell>
        <mxCell id="gsHY0I-0n19P9BkGbzPg-5" value="" style="endArrow=blockThin;html=1;rounded=0;exitX=0;exitY=0.5;exitDx=0;exitDy=0;entryX=1;entryY=0.5;entryDx=0;entryDy=0;dashed=1;fillColor=#f8cecc;strokeColor=#b85450;endFill=1;" edge="1" parent="1" source="gDzynxHSFNQ0-ALjwcSn-5" target="Ob1G8lW7mT5lAiAhJuhH-5">
          <mxGeometry width="50" height="50" relative="1" as="geometry">
            <mxPoint x="-70" y="350" as="sourcePoint" />
            <mxPoint x="-20" y="300" as="targetPoint" />
            <Array as="points" />
          </mxGeometry>
        </mxCell>
        <mxCell id="gsHY0I-0n19P9BkGbzPg-6" value="" style="endArrow=none;html=1;rounded=0;exitX=0;exitY=0.5;exitDx=0;exitDy=0;endFill=0;fillColor=#f8cecc;strokeColor=#b85450;" edge="1" parent="1" source="Ob1G8lW7mT5lAiAhJuhH-14">
          <mxGeometry width="50" height="50" relative="1" as="geometry">
            <mxPoint x="590" y="690" as="sourcePoint" />
            <mxPoint x="320" y="600" as="targetPoint" />
            <Array as="points">
              <mxPoint x="320" y="720" />
            </Array>
          </mxGeometry>
        </mxCell>
        <mxCell id="gsHY0I-0n19P9BkGbzPg-7" value="" style="endArrow=blockThin;html=1;rounded=0;entryX=1;entryY=0.5;entryDx=0;entryDy=0;exitX=0;exitY=0.5;exitDx=0;exitDy=0;endFill=1;fillColor=#f8cecc;strokeColor=#b85450;" edge="1" parent="1" source="Ob1G8lW7mT5lAiAhJuhH-3" target="Ob1G8lW7mT5lAiAhJuhH-2">
          <mxGeometry width="50" height="50" relative="1" as="geometry">
            <mxPoint x="-270" y="230" as="sourcePoint" />
            <mxPoint x="-370" y="210" as="targetPoint" />
            <Array as="points">
              <mxPoint x="-420" y="60" />
              <mxPoint x="-420" y="260" />
            </Array>
          </mxGeometry>
        </mxCell>
        <mxCell id="gsHY0I-0n19P9BkGbzPg-8" value="" style="endArrow=blockThin;html=1;rounded=0;entryX=1;entryY=0.5;entryDx=0;entryDy=0;exitX=0;exitY=0.5;exitDx=0;exitDy=0;endFill=1;fillColor=#f8cecc;strokeColor=#b85450;" edge="1" parent="1" source="Ob1G8lW7mT5lAiAhJuhH-5" target="Ob1G8lW7mT5lAiAhJuhH-2">
          <mxGeometry width="50" height="50" relative="1" as="geometry">
            <mxPoint x="-270" y="230" as="sourcePoint" />
            <mxPoint x="-220" y="180" as="targetPoint" />
            <Array as="points">
              <mxPoint x="-420" y="600" />
              <mxPoint x="-420" y="260" />
            </Array>
          </mxGeometry>
        </mxCell>
        <mxCell id="gsHY0I-0n19P9BkGbzPg-10" value="" style="endArrow=blockThin;html=1;rounded=0;entryX=0.5;entryY=0;entryDx=0;entryDy=0;exitX=0.5;exitY=1;exitDx=0;exitDy=0;endFill=1;fillColor=#f8cecc;strokeColor=#b85450;" edge="1" parent="1" source="Ob1G8lW7mT5lAiAhJuhH-6" target="Ob1G8lW7mT5lAiAhJuhH-3">
          <mxGeometry width="50" height="50" relative="1" as="geometry">
            <mxPoint x="40" y="260" as="sourcePoint" />
            <mxPoint x="90" y="210" as="targetPoint" />
          </mxGeometry>
        </mxCell>
        <mxCell id="gsHY0I-0n19P9BkGbzPg-11" value="" style="endArrow=blockThin;html=1;rounded=0;exitX=0;exitY=0.5;exitDx=0;exitDy=0;dashed=1;endFill=1;entryX=1;entryY=0.5;entryDx=0;entryDy=0;fillColor=#f8cecc;strokeColor=#b85450;" edge="1" parent="1" source="Ob1G8lW7mT5lAiAhJuhH-15" target="Ob1G8lW7mT5lAiAhJuhH-6">
          <mxGeometry width="50" height="50" relative="1" as="geometry">
            <mxPoint x="310" y="250" as="sourcePoint" />
            <mxPoint x="-80" y="-180" as="targetPoint" />
            <Array as="points">
              <mxPoint x="390" y="-60" />
            </Array>
          </mxGeometry>
        </mxCell>
        <mxCell id="gsHY0I-0n19P9BkGbzPg-12" value="" style="endArrow=blockThin;html=1;rounded=0;entryX=0.5;entryY=0;entryDx=0;entryDy=0;exitX=0.5;exitY=1;exitDx=0;exitDy=0;dashed=1;endFill=1;fillColor=#f8cecc;strokeColor=#b85450;" edge="1" parent="1" source="Ob1G8lW7mT5lAiAhJuhH-24" target="Ob1G8lW7mT5lAiAhJuhH-6">
          <mxGeometry width="50" height="50" relative="1" as="geometry">
            <mxPoint x="120" y="40" as="sourcePoint" />
            <mxPoint x="170" y="-10" as="targetPoint" />
            <Array as="points" />
          </mxGeometry>
        </mxCell>
        <mxCell id="Jp9OR_NbhEC4RY8J0OJZ-1" value="&lt;font style=&quot;font-size: 16px;&quot;&gt;AbstractQueue&lt;/font&gt;" style="rounded=0;whiteSpace=wrap;html=1;fontFamily=Helvetica;fillColor=#dae8fc;strokeColor=#6c8ebf;" vertex="1" parent="1">
          <mxGeometry x="40" y="40" width="120" height="40" as="geometry" />
        </mxCell>
        <mxCell id="Jp9OR_NbhEC4RY8J0OJZ-2" value="" style="endArrow=blockThin;html=1;rounded=0;exitX=0;exitY=0.5;exitDx=0;exitDy=0;dashed=1;entryX=1;entryY=0.5;entryDx=0;entryDy=0;endFill=1;fillColor=#f8cecc;strokeColor=#b85450;" edge="1" parent="1" source="Jp9OR_NbhEC4RY8J0OJZ-1" target="Ob1G8lW7mT5lAiAhJuhH-3">
          <mxGeometry width="50" height="50" relative="1" as="geometry">
            <mxPoint x="-150" y="60" as="sourcePoint" />
            <mxPoint x="-210" y="110" as="targetPoint" />
            <Array as="points" />
          </mxGeometry>
        </mxCell>
        <mxCell id="Jp9OR_NbhEC4RY8J0OJZ-5" value="" style="endArrow=blockThin;html=1;rounded=0;entryX=1;entryY=0.5;entryDx=0;entryDy=0;exitX=0;exitY=0.5;exitDx=0;exitDy=0;endFill=1;fillColor=#f8cecc;strokeColor=#b85450;" edge="1" parent="1" source="Jp9OR_NbhEC4RY8J0OJZ-6" target="Jp9OR_NbhEC4RY8J0OJZ-1">
          <mxGeometry width="50" height="50" relative="1" as="geometry">
            <mxPoint x="120" y="60" as="sourcePoint" />
            <mxPoint x="290" y="70" as="targetPoint" />
          </mxGeometry>
        </mxCell>
        <mxCell id="Jp9OR_NbhEC4RY8J0OJZ-6" value="&lt;font style=&quot;font-size: 16px;&quot;&gt;PriorityQueue&lt;/font&gt;" style="rounded=0;whiteSpace=wrap;html=1;fontFamily=Helvetica;fillColor=#ffe6cc;strokeColor=#d79b00;" vertex="1" parent="1">
          <mxGeometry x="240" y="40" width="120" height="40" as="geometry" />
        </mxCell>
        <mxCell id="Jp9OR_NbhEC4RY8J0OJZ-9" value="" style="endArrow=none;html=1;rounded=0;exitX=0;exitY=0.5;exitDx=0;exitDy=0;fillColor=#f8cecc;strokeColor=#b85450;endFill=0;" edge="1" parent="1" source="Ob1G8lW7mT5lAiAhJuhH-4">
          <mxGeometry width="50" height="50" relative="1" as="geometry">
            <mxPoint x="-230" y="430" as="sourcePoint" />
            <mxPoint x="-420" y="380" as="targetPoint" />
          </mxGeometry>
        </mxCell>
        <mxCell id="Jp9OR_NbhEC4RY8J0OJZ-10" value="" style="endArrow=blockThin;html=1;rounded=0;entryX=0.5;entryY=1;entryDx=0;entryDy=0;exitX=0;exitY=0.5;exitDx=0;exitDy=0;dashed=1;endFill=1;fillColor=#f8cecc;strokeColor=#b85450;" edge="1" parent="1" source="gDzynxHSFNQ0-ALjwcSn-3" target="Ob1G8lW7mT5lAiAhJuhH-2">
          <mxGeometry width="50" height="50" relative="1" as="geometry">
            <mxPoint x="-230" y="430" as="sourcePoint" />
            <mxPoint x="-180" y="380" as="targetPoint" />
            <Array as="points">
              <mxPoint x="-560" y="720" />
            </Array>
          </mxGeometry>
        </mxCell>
        <mxCell id="Jp9OR_NbhEC4RY8J0OJZ-11" value="&lt;span style=&quot;color: rgb(0, 0, 0); font-family: Helvetica; font-size: 16px; font-style: normal; font-variant-ligatures: normal; font-variant-caps: normal; font-weight: 400; letter-spacing: normal; orphans: 2; text-align: center; text-indent: 0px; text-transform: none; widows: 2; word-spacing: 0px; -webkit-text-stroke-width: 0px; text-decoration-thickness: initial; text-decoration-style: initial; text-decoration-color: initial; float: none; display: inline !important;&quot;&gt;AbstractSet&lt;/span&gt;" style="rounded=0;whiteSpace=wrap;html=1;fillColor=#dae8fc;strokeColor=#6c8ebf;" vertex="1" parent="1">
          <mxGeometry x="180" y="360" width="100" height="40" as="geometry" />
        </mxCell>
        <mxCell id="Jp9OR_NbhEC4RY8J0OJZ-12" value="" style="endArrow=blockThin;html=1;rounded=0;entryX=1;entryY=0.5;entryDx=0;entryDy=0;exitX=0;exitY=0.5;exitDx=0;exitDy=0;dashed=1;fillColor=#f8cecc;strokeColor=#b85450;endFill=1;" edge="1" parent="1" source="Jp9OR_NbhEC4RY8J0OJZ-11" target="Ob1G8lW7mT5lAiAhJuhH-4">
          <mxGeometry width="50" height="50" relative="1" as="geometry">
            <mxPoint x="220" y="390" as="sourcePoint" />
            <mxPoint x="270" y="340" as="targetPoint" />
          </mxGeometry>
        </mxCell>
        <mxCell id="Jp9OR_NbhEC4RY8J0OJZ-16" value="&lt;font style=&quot;font-size: 16px;&quot;&gt;NavigableSet&lt;/font&gt;" style="rounded=0;whiteSpace=wrap;html=1;fontFamily=Helvetica;fillColor=#d5e8d4;strokeColor=#82b366;" vertex="1" parent="1">
          <mxGeometry x="-160" y="140" width="120" height="40" as="geometry" />
        </mxCell>
        <mxCell id="Jp9OR_NbhEC4RY8J0OJZ-18" value="" style="endArrow=blockThin;html=1;rounded=0;entryX=0.5;entryY=0;entryDx=0;entryDy=0;exitX=0;exitY=0.5;exitDx=0;exitDy=0;endFill=1;fillColor=#f8cecc;strokeColor=#b85450;" edge="1" parent="1" source="Jp9OR_NbhEC4RY8J0OJZ-16" target="Ob1G8lW7mT5lAiAhJuhH-32">
          <mxGeometry width="50" height="50" relative="1" as="geometry">
            <mxPoint x="30" y="220" as="sourcePoint" />
            <mxPoint x="80" y="170" as="targetPoint" />
            <Array as="points">
              <mxPoint x="-280" y="160" />
            </Array>
          </mxGeometry>
        </mxCell>
        <mxCell id="Jp9OR_NbhEC4RY8J0OJZ-23" value="" style="endArrow=blockThin;html=1;rounded=0;entryX=1;entryY=0.5;entryDx=0;entryDy=0;endFill=1;fillColor=#f8cecc;strokeColor=#b85450;" edge="1" parent="1" source="Ob1G8lW7mT5lAiAhJuhH-28" target="Ob1G8lW7mT5lAiAhJuhH-26">
          <mxGeometry width="50" height="50" relative="1" as="geometry">
            <mxPoint x="170" y="210" as="sourcePoint" />
            <mxPoint x="220" y="160" as="targetPoint" />
          </mxGeometry>
        </mxCell>
        <mxCell id="Jp9OR_NbhEC4RY8J0OJZ-25" value="" style="endArrow=blockThin;html=1;rounded=0;entryX=0.5;entryY=0;entryDx=0;entryDy=0;exitX=0.5;exitY=1;exitDx=0;exitDy=0;endFill=1;fillColor=#f8cecc;strokeColor=#b85450;" edge="1" parent="1" source="Ob1G8lW7mT5lAiAhJuhH-32" target="Ob1G8lW7mT5lAiAhJuhH-4">
          <mxGeometry width="50" height="50" relative="1" as="geometry">
            <mxPoint x="10" y="120" as="sourcePoint" />
            <mxPoint x="60" y="70" as="targetPoint" />
          </mxGeometry>
        </mxCell>
        <mxCell id="Jp9OR_NbhEC4RY8J0OJZ-26" value="" style="endArrow=blockThin;html=1;rounded=0;exitX=0.5;exitY=1;exitDx=0;exitDy=0;entryX=1;entryY=0.5;entryDx=0;entryDy=0;endFill=1;fillColor=#f8cecc;strokeColor=#b85450;" edge="1" parent="1" source="gDzynxHSFNQ0-ALjwcSn-5" target="gDzynxHSFNQ0-ALjwcSn-3">
          <mxGeometry width="50" height="50" relative="1" as="geometry">
            <mxPoint x="40" y="360" as="sourcePoint" />
            <mxPoint x="90" y="310" as="targetPoint" />
            <Array as="points">
              <mxPoint x="230" y="720" />
            </Array>
          </mxGeometry>
        </mxCell>
        <mxCell id="Jp9OR_NbhEC4RY8J0OJZ-28" value="" style="endArrow=none;html=1;rounded=0;entryX=0.5;entryY=1;entryDx=0;entryDy=0;endFill=0;fillColor=#f8cecc;strokeColor=#b85450;" edge="1" parent="1" target="Jp9OR_NbhEC4RY8J0OJZ-1">
          <mxGeometry width="50" height="50" relative="1" as="geometry">
            <mxPoint x="40" y="720" as="sourcePoint" />
            <mxPoint x="90" y="220" as="targetPoint" />
            <Array as="points">
              <mxPoint x="100" y="720" />
            </Array>
          </mxGeometry>
        </mxCell>
        <mxCell id="Jp9OR_NbhEC4RY8J0OJZ-30" value="" style="endArrow=blockThin;html=1;rounded=0;entryX=1;entryY=0.5;entryDx=0;entryDy=0;exitX=0;exitY=0.5;exitDx=0;exitDy=0;endFill=1;fillColor=#f8cecc;strokeColor=#b85450;" edge="1" parent="1" source="Ob1G8lW7mT5lAiAhJuhH-34" target="Jp9OR_NbhEC4RY8J0OJZ-11">
          <mxGeometry width="50" height="50" relative="1" as="geometry">
            <mxPoint x="240" y="430" as="sourcePoint" />
            <mxPoint x="290" y="380" as="targetPoint" />
            <Array as="points">
              <mxPoint x="320" y="260" />
              <mxPoint x="320" y="380" />
            </Array>
          </mxGeometry>
        </mxCell>
        <mxCell id="Jp9OR_NbhEC4RY8J0OJZ-31" value="" style="endArrow=none;html=1;rounded=0;entryX=0;entryY=0.5;entryDx=0;entryDy=0;fillColor=#f8cecc;strokeColor=#b85450;" edge="1" parent="1" target="Ob1G8lW7mT5lAiAhJuhH-26">
          <mxGeometry width="50" height="50" relative="1" as="geometry">
            <mxPoint x="300" y="380" as="sourcePoint" />
            <mxPoint x="290" y="380" as="targetPoint" />
          </mxGeometry>
        </mxCell>
        <mxCell id="Jp9OR_NbhEC4RY8J0OJZ-32" value="" style="endArrow=none;html=1;rounded=0;entryX=0.5;entryY=1;entryDx=0;entryDy=0;endFill=0;fillColor=#f8cecc;strokeColor=#b85450;" edge="1" parent="1" target="Jp9OR_NbhEC4RY8J0OJZ-11">
          <mxGeometry width="50" height="50" relative="1" as="geometry">
            <mxPoint x="100" y="480" as="sourcePoint" />
            <mxPoint x="220" y="380" as="targetPoint" />
            <Array as="points">
              <mxPoint x="230" y="480" />
            </Array>
          </mxGeometry>
        </mxCell>
        <mxCell id="XTaeGi_FAfCLmI3WfCey-2" value="&lt;font style=&quot;font-size: 16px;&quot;&gt;CopyOnWriteArrayList&lt;br&gt;&lt;/font&gt;" style="rounded=0;whiteSpace=wrap;html=1;fontFamily=Helvetica;fillColor=#ffe6cc;strokeColor=#d79b00;" vertex="1" parent="1">
          <mxGeometry x="-200" y="460" width="180" height="40" as="geometry" />
        </mxCell>
        <mxCell id="XTaeGi_FAfCLmI3WfCey-3" value="" style="endArrow=blockThin;html=1;rounded=0;exitX=0;exitY=0.5;exitDx=0;exitDy=0;entryX=0.5;entryY=0;entryDx=0;entryDy=0;dashed=1;fillColor=#f8cecc;strokeColor=#b85450;endFill=1;" edge="1" parent="1" source="XTaeGi_FAfCLmI3WfCey-2" target="Ob1G8lW7mT5lAiAhJuhH-5">
          <mxGeometry width="50" height="50" relative="1" as="geometry">
            <mxPoint x="-130" y="500" as="sourcePoint" />
            <mxPoint x="-80" y="450" as="targetPoint" />
            <Array as="points">
              <mxPoint x="-280" y="480" />
            </Array>
          </mxGeometry>
        </mxCell>
        <mxCell id="XTaeGi_FAfCLmI3WfCey-5" value="" style="rounded=0;whiteSpace=wrap;html=1;fillColor=#dae8fc;strokeColor=#6c8ebf;" vertex="1" parent="1">
          <mxGeometry x="-730" y="-120" width="60" height="20" as="geometry" />
        </mxCell>
        <mxCell id="XTaeGi_FAfCLmI3WfCey-6" value="&lt;font style=&quot;font-size: 16px;&quot;&gt;Abstract Class&lt;/font&gt;" style="text;html=1;strokeColor=none;fillColor=none;align=left;verticalAlign=middle;whiteSpace=wrap;rounded=0;" vertex="1" parent="1">
          <mxGeometry x="-660" y="-120" width="110" height="20" as="geometry" />
        </mxCell>
        <mxCell id="XTaeGi_FAfCLmI3WfCey-9" value="&lt;font style=&quot;font-size: 16px;&quot;&gt;NavigableMap&lt;/font&gt;" style="rounded=0;whiteSpace=wrap;html=1;fillColor=#d5e8d4;strokeColor=#82b366;" vertex="1" parent="1">
          <mxGeometry x="1060.5" y="240" width="119" height="40" as="geometry" />
        </mxCell>
        <mxCell id="XTaeGi_FAfCLmI3WfCey-12" value="&lt;span style=&quot;color: rgb(0, 0, 0); font-family: Helvetica; font-size: 16px; font-style: normal; font-variant-ligatures: normal; font-variant-caps: normal; font-weight: 400; letter-spacing: normal; orphans: 2; text-align: center; text-indent: 0px; text-transform: none; widows: 2; word-spacing: 0px; -webkit-text-stroke-width: 0px; text-decoration-thickness: initial; text-decoration-style: initial; text-decoration-color: initial; float: none; display: inline !important;&quot;&gt;AbstractMap&lt;/span&gt;" style="rounded=0;whiteSpace=wrap;html=1;fillColor=#dae8fc;strokeColor=#6c8ebf;" vertex="1" parent="1">
          <mxGeometry x="1280" width="100" height="40" as="geometry" />
        </mxCell>
        <mxCell id="XTaeGi_FAfCLmI3WfCey-14" value="" style="endArrow=blockThin;html=1;rounded=0;entryX=0.5;entryY=1;entryDx=0;entryDy=0;exitX=0.5;exitY=0;exitDx=0;exitDy=0;endFill=1;fillColor=#f8cecc;strokeColor=#b85450;" edge="1" parent="1" source="Ob1G8lW7mT5lAiAhJuhH-44" target="Ob1G8lW7mT5lAiAhJuhH-36">
          <mxGeometry width="50" height="50" relative="1" as="geometry">
            <mxPoint x="1170" y="400" as="sourcePoint" />
            <mxPoint x="1240" y="350" as="targetPoint" />
          </mxGeometry>
        </mxCell>
        <mxCell id="XTaeGi_FAfCLmI3WfCey-16" value="" style="endArrow=blockThin;html=1;rounded=0;entryX=0.5;entryY=1;entryDx=0;entryDy=0;exitX=0.5;exitY=0;exitDx=0;exitDy=0;endFill=1;fillColor=#f8cecc;strokeColor=#b85450;" edge="1" parent="1" source="XTaeGi_FAfCLmI3WfCey-9" target="Ob1G8lW7mT5lAiAhJuhH-44">
          <mxGeometry width="50" height="50" relative="1" as="geometry">
            <mxPoint x="1190" y="270" as="sourcePoint" />
            <mxPoint x="1240" y="220" as="targetPoint" />
          </mxGeometry>
        </mxCell>
        <mxCell id="XTaeGi_FAfCLmI3WfCey-19" value="" style="endArrow=blockThin;html=1;rounded=0;entryX=1;entryY=0.5;entryDx=0;entryDy=0;exitX=0;exitY=0.5;exitDx=0;exitDy=0;dashed=1;endFill=1;fillColor=#f8cecc;strokeColor=#b85450;" edge="1" parent="1" source="XTaeGi_FAfCLmI3WfCey-12" target="Ob1G8lW7mT5lAiAhJuhH-36">
          <mxGeometry width="50" height="50" relative="1" as="geometry">
            <mxPoint x="1190" y="270" as="sourcePoint" />
            <mxPoint x="1240" y="220" as="targetPoint" />
          </mxGeometry>
        </mxCell>
        <mxCell id="XTaeGi_FAfCLmI3WfCey-20" value="" style="endArrow=blockThin;html=1;rounded=0;entryX=1;entryY=0.5;entryDx=0;entryDy=0;exitX=0;exitY=0.5;exitDx=0;exitDy=0;fillColor=#f8cecc;strokeColor=#b85450;endFill=1;" edge="1" parent="1" source="Ob1G8lW7mT5lAiAhJuhH-39" target="XTaeGi_FAfCLmI3WfCey-12">
          <mxGeometry width="50" height="50" relative="1" as="geometry">
            <mxPoint x="1540" y="210" as="sourcePoint" />
            <mxPoint x="1590" y="160" as="targetPoint" />
          </mxGeometry>
        </mxCell>
        <mxCell id="XTaeGi_FAfCLmI3WfCey-21" value="" style="endArrow=blockThin;html=1;rounded=0;entryX=1;entryY=0.5;entryDx=0;entryDy=0;exitX=0;exitY=0.5;exitDx=0;exitDy=0;endFill=1;fillColor=#f8cecc;strokeColor=#b85450;" edge="1" parent="1" source="Ob1G8lW7mT5lAiAhJuhH-38" target="Ob1G8lW7mT5lAiAhJuhH-39">
          <mxGeometry width="50" height="50" relative="1" as="geometry">
            <mxPoint x="1540" y="210" as="sourcePoint" />
            <mxPoint x="1590" y="160" as="targetPoint" />
          </mxGeometry>
        </mxCell>
        <mxCell id="XTaeGi_FAfCLmI3WfCey-22" value="" style="endArrow=blockThin;html=1;rounded=0;entryX=0.5;entryY=1;entryDx=0;entryDy=0;exitX=0.5;exitY=0;exitDx=0;exitDy=0;fillColor=#f8cecc;strokeColor=#b85450;endFill=1;" edge="1" parent="1" source="Ob1G8lW7mT5lAiAhJuhH-45" target="XTaeGi_FAfCLmI3WfCey-12">
          <mxGeometry width="50" height="50" relative="1" as="geometry">
            <mxPoint x="1540" y="210" as="sourcePoint" />
            <mxPoint x="1590" y="160" as="targetPoint" />
          </mxGeometry>
        </mxCell>
        <mxCell id="XTaeGi_FAfCLmI3WfCey-23" value="" style="endArrow=blockThin;html=1;rounded=0;entryX=0;entryY=0.5;entryDx=0;entryDy=0;exitX=1;exitY=0.5;exitDx=0;exitDy=0;fillColor=#f8cecc;strokeColor=#b85450;endFill=1;dashed=1;" edge="1" parent="1" source="Ob1G8lW7mT5lAiAhJuhH-37" target="Ob1G8lW7mT5lAiAhJuhH-36">
          <mxGeometry width="50" height="50" relative="1" as="geometry">
            <mxPoint x="980" y="230" as="sourcePoint" />
            <mxPoint x="1030" y="180" as="targetPoint" />
          </mxGeometry>
        </mxCell>
        <mxCell id="XTaeGi_FAfCLmI3WfCey-24" value="" style="endArrow=blockThin;html=1;rounded=0;exitX=0.5;exitY=1;exitDx=0;exitDy=0;entryX=1;entryY=0.5;entryDx=0;entryDy=0;dashed=1;endFill=1;fillColor=#f8cecc;strokeColor=#b85450;" edge="1" parent="1" source="Ob1G8lW7mT5lAiAhJuhH-45" target="XTaeGi_FAfCLmI3WfCey-9">
          <mxGeometry width="50" height="50" relative="1" as="geometry">
            <mxPoint x="1360" y="100" as="sourcePoint" />
            <mxPoint x="1410" y="50" as="targetPoint" />
            <Array as="points">
              <mxPoint x="1330" y="260" />
            </Array>
          </mxGeometry>
        </mxCell>
      </root>
    </mxGraphModel>
  </diagram>
  <diagram id="tI2h71nOKqbhlU2SmDfX" name="Page-4">
    <mxGraphModel dx="2092" dy="1297" grid="1" gridSize="10" guides="1" tooltips="1" connect="1" arrows="1" fold="1" page="1" pageScale="1" pageWidth="827" pageHeight="1169" math="0" shadow="0">
      <root>
        <mxCell id="0" />
        <mxCell id="1" parent="0" />
        <mxCell id="sESHhPpWd29Qu0UBiGSD-13" value="Iterable" style="ellipse;whiteSpace=wrap;html=1;fontSize=16;fillColor=#fff2cc;strokeColor=#d6b656;" vertex="1" parent="1">
          <mxGeometry x="640" y="80" width="120" height="40" as="geometry" />
        </mxCell>
        <mxCell id="sESHhPpWd29Qu0UBiGSD-14" value="Collection" style="ellipse;whiteSpace=wrap;html=1;fontSize=16;fillColor=#fff2cc;strokeColor=#d6b656;" vertex="1" parent="1">
          <mxGeometry x="640" y="200" width="120" height="40" as="geometry" />
        </mxCell>
        <mxCell id="sESHhPpWd29Qu0UBiGSD-15" value="List" style="ellipse;whiteSpace=wrap;html=1;fontSize=16;fillColor=#fff2cc;strokeColor=#d6b656;" vertex="1" parent="1">
          <mxGeometry x="660" y="320" width="80" height="40" as="geometry" />
        </mxCell>
        <mxCell id="sESHhPpWd29Qu0UBiGSD-16" value="Queue" style="ellipse;whiteSpace=wrap;html=1;fontSize=16;fillColor=#fff2cc;strokeColor=#d6b656;" vertex="1" parent="1">
          <mxGeometry x="1241" y="360" width="80" height="40" as="geometry" />
        </mxCell>
        <mxCell id="sESHhPpWd29Qu0UBiGSD-17" value="Set" style="ellipse;whiteSpace=wrap;html=1;fontSize=16;fillColor=#fff2cc;strokeColor=#d6b656;" vertex="1" parent="1">
          <mxGeometry x="160" y="360" width="80" height="40" as="geometry" />
        </mxCell>
        <mxCell id="sESHhPpWd29Qu0UBiGSD-18" value="SortedSet" style="ellipse;whiteSpace=wrap;html=1;fontSize=16;fillColor=#fff2cc;strokeColor=#d6b656;" vertex="1" parent="1">
          <mxGeometry x="150" y="480" width="100" height="40" as="geometry" />
        </mxCell>
        <mxCell id="sESHhPpWd29Qu0UBiGSD-19" value="NavigableSet" style="ellipse;whiteSpace=wrap;html=1;fontSize=16;fillColor=#fff2cc;strokeColor=#d6b656;" vertex="1" parent="1">
          <mxGeometry x="140" y="600" width="120" height="40" as="geometry" />
        </mxCell>
        <mxCell id="sESHhPpWd29Qu0UBiGSD-20" value="AbstractCollection" style="rounded=1;whiteSpace=wrap;html=1;fontSize=16;fillColor=#dae8fc;strokeColor=#6c8ebf;" vertex="1" parent="1">
          <mxGeometry x="880" y="360" width="160" height="40" as="geometry" />
        </mxCell>
        <mxCell id="sESHhPpWd29Qu0UBiGSD-21" value="AbstractList" style="rounded=1;whiteSpace=wrap;html=1;fontSize=16;fillColor=#dae8fc;strokeColor=#6c8ebf;" vertex="1" parent="1">
          <mxGeometry x="640" y="480" width="120" height="40" as="geometry" />
        </mxCell>
        <mxCell id="sESHhPpWd29Qu0UBiGSD-22" value="AbstractQueue" style="rounded=1;whiteSpace=wrap;html=1;fontSize=16;fillColor=#dae8fc;strokeColor=#6c8ebf;" vertex="1" parent="1">
          <mxGeometry x="897.5" y="480" width="125" height="40" as="geometry" />
        </mxCell>
        <mxCell id="sESHhPpWd29Qu0UBiGSD-23" value="AbstractSequentialList" style="rounded=1;whiteSpace=wrap;html=1;fontSize=16;fillColor=#dae8fc;strokeColor=#6c8ebf;" vertex="1" parent="1">
          <mxGeometry x="350" y="640" width="180" height="40" as="geometry" />
        </mxCell>
        <mxCell id="sESHhPpWd29Qu0UBiGSD-24" value="AbstractSet" style="rounded=1;whiteSpace=wrap;html=1;fontSize=16;fillColor=#dae8fc;strokeColor=#6c8ebf;" vertex="1" parent="1">
          <mxGeometry x="1060" y="600" width="120" height="40" as="geometry" />
        </mxCell>
        <mxCell id="sESHhPpWd29Qu0UBiGSD-25" value="Stack" style="rounded=0;whiteSpace=wrap;html=1;fontSize=16;fillColor=#e1d5e7;strokeColor=#9673a6;" vertex="1" parent="1">
          <mxGeometry x="710" y="800" width="80" height="40" as="geometry" />
        </mxCell>
        <mxCell id="sESHhPpWd29Qu0UBiGSD-26" value="LinkedList" style="rounded=0;whiteSpace=wrap;html=1;fontSize=16;fillColor=#e1d5e7;strokeColor=#9673a6;" vertex="1" parent="1">
          <mxGeometry x="1220" y="920" width="120" height="40" as="geometry" />
        </mxCell>
        <mxCell id="sESHhPpWd29Qu0UBiGSD-27" value="ArrayList" style="rounded=0;whiteSpace=wrap;html=1;fontSize=16;fillColor=#e1d5e7;strokeColor=#9673a6;" vertex="1" parent="1">
          <mxGeometry x="610" y="600" width="80" height="40" as="geometry" />
        </mxCell>
        <mxCell id="sESHhPpWd29Qu0UBiGSD-28" value="Vector" style="rounded=0;whiteSpace=wrap;html=1;fontSize=16;fillColor=#e1d5e7;strokeColor=#9673a6;" vertex="1" parent="1">
          <mxGeometry x="710" y="680" width="80" height="40" as="geometry" />
        </mxCell>
        <mxCell id="sESHhPpWd29Qu0UBiGSD-29" value="PriorityQueue" style="rounded=0;whiteSpace=wrap;html=1;fontSize=16;fillColor=#e1d5e7;strokeColor=#9673a6;" vertex="1" parent="1">
          <mxGeometry x="900" y="600" width="120" height="40" as="geometry" />
        </mxCell>
        <mxCell id="sESHhPpWd29Qu0UBiGSD-30" value="TreeSet" style="rounded=0;whiteSpace=wrap;html=1;fontSize=16;fillColor=#fff2cc;strokeColor=#d6b656;" vertex="1" parent="1">
          <mxGeometry x="140" y="880" width="120" height="40" as="geometry" />
        </mxCell>
        <mxCell id="TRdlj-5DoPHQLX2t0U4Q-1" value="&lt;font style=&quot;font-size: 16px;&quot;&gt;Deque&lt;/font&gt;" style="ellipse;whiteSpace=wrap;html=1;fillColor=#fff2cc;strokeColor=#d6b656;" vertex="1" parent="1">
          <mxGeometry x="1241" y="480" width="80" height="40" as="geometry" />
        </mxCell>
        <mxCell id="TRdlj-5DoPHQLX2t0U4Q-2" value="" style="endArrow=classic;html=1;rounded=0;entryX=0.5;entryY=1;entryDx=0;entryDy=0;exitX=0.5;exitY=0;exitDx=0;exitDy=0;fillColor=#d5e8d4;strokeColor=#82b366;" edge="1" parent="1" source="sESHhPpWd29Qu0UBiGSD-14" target="sESHhPpWd29Qu0UBiGSD-13">
          <mxGeometry width="50" height="50" relative="1" as="geometry">
            <mxPoint x="1080" y="650" as="sourcePoint" />
            <mxPoint x="1130" y="600" as="targetPoint" />
          </mxGeometry>
        </mxCell>
        <mxCell id="TRdlj-5DoPHQLX2t0U4Q-3" value="" style="endArrow=classic;html=1;rounded=0;entryX=0.5;entryY=1;entryDx=0;entryDy=0;exitX=0.5;exitY=0;exitDx=0;exitDy=0;fillColor=#d5e8d4;strokeColor=#82b366;" edge="1" parent="1" source="sESHhPpWd29Qu0UBiGSD-15" target="sESHhPpWd29Qu0UBiGSD-14">
          <mxGeometry width="50" height="50" relative="1" as="geometry">
            <mxPoint x="1080" y="530" as="sourcePoint" />
            <mxPoint x="1130" y="480" as="targetPoint" />
          </mxGeometry>
        </mxCell>
        <mxCell id="Rs4xig4Tb-00kTWUBzq4-13" value="" style="endArrow=classic;html=1;rounded=0;entryX=0.5;entryY=1;entryDx=0;entryDy=0;exitX=0.5;exitY=0;exitDx=0;exitDy=0;fillColor=#d5e8d4;strokeColor=#82b366;" edge="1" parent="1" source="sESHhPpWd29Qu0UBiGSD-30" target="sESHhPpWd29Qu0UBiGSD-19">
          <mxGeometry width="50" height="50" relative="1" as="geometry">
            <mxPoint x="500" y="760" as="sourcePoint" />
            <mxPoint x="670" y="650" as="targetPoint" />
          </mxGeometry>
        </mxCell>
        <mxCell id="Rs4xig4Tb-00kTWUBzq4-16" value="" style="endArrow=classic;html=1;rounded=0;exitX=0.5;exitY=0;exitDx=0;exitDy=0;entryX=0.5;entryY=1;entryDx=0;entryDy=0;fillColor=#d5e8d4;strokeColor=#82b366;" edge="1" parent="1" source="sESHhPpWd29Qu0UBiGSD-19" target="sESHhPpWd29Qu0UBiGSD-18">
          <mxGeometry width="50" height="50" relative="1" as="geometry">
            <mxPoint x="370" y="700" as="sourcePoint" />
            <mxPoint x="420" y="650" as="targetPoint" />
          </mxGeometry>
        </mxCell>
        <mxCell id="Rs4xig4Tb-00kTWUBzq4-17" value="" style="endArrow=classic;html=1;rounded=0;exitX=0.5;exitY=0;exitDx=0;exitDy=0;entryX=0.5;entryY=1;entryDx=0;entryDy=0;fillColor=#d5e8d4;strokeColor=#82b366;" edge="1" parent="1" source="sESHhPpWd29Qu0UBiGSD-18" target="sESHhPpWd29Qu0UBiGSD-17">
          <mxGeometry width="50" height="50" relative="1" as="geometry">
            <mxPoint x="360" y="500" as="sourcePoint" />
            <mxPoint x="410" y="450" as="targetPoint" />
          </mxGeometry>
        </mxCell>
        <mxCell id="Rs4xig4Tb-00kTWUBzq4-18" value="" style="endArrow=classic;html=1;rounded=0;exitX=0.5;exitY=0;exitDx=0;exitDy=0;entryX=0.5;entryY=1;entryDx=0;entryDy=0;fillColor=#d5e8d4;strokeColor=#82b366;" edge="1" parent="1" source="sESHhPpWd29Qu0UBiGSD-20" target="sESHhPpWd29Qu0UBiGSD-14">
          <mxGeometry width="50" height="50" relative="1" as="geometry">
            <mxPoint x="1030" y="400" as="sourcePoint" />
            <mxPoint x="1080" y="350" as="targetPoint" />
            <Array as="points">
              <mxPoint x="960" y="280" />
              <mxPoint x="700" y="280" />
            </Array>
          </mxGeometry>
        </mxCell>
        <mxCell id="Rs4xig4Tb-00kTWUBzq4-19" value="" style="endArrow=classic;html=1;rounded=0;entryX=0;entryY=0.5;entryDx=0;entryDy=0;exitX=0.5;exitY=0;exitDx=0;exitDy=0;fillColor=#d5e8d4;strokeColor=#82b366;" edge="1" parent="1" source="sESHhPpWd29Qu0UBiGSD-17" target="sESHhPpWd29Qu0UBiGSD-14">
          <mxGeometry width="50" height="50" relative="1" as="geometry">
            <mxPoint x="570" y="400" as="sourcePoint" />
            <mxPoint x="620" y="350" as="targetPoint" />
            <Array as="points">
              <mxPoint x="200" y="220" />
            </Array>
          </mxGeometry>
        </mxCell>
        <mxCell id="Rs4xig4Tb-00kTWUBzq4-20" value="" style="endArrow=classic;html=1;rounded=0;exitX=0.5;exitY=0;exitDx=0;exitDy=0;entryX=1;entryY=0.5;entryDx=0;entryDy=0;fillColor=#d5e8d4;strokeColor=#82b366;" edge="1" parent="1" source="sESHhPpWd29Qu0UBiGSD-16" target="sESHhPpWd29Qu0UBiGSD-14">
          <mxGeometry width="50" height="50" relative="1" as="geometry">
            <mxPoint x="570" y="400" as="sourcePoint" />
            <mxPoint x="820" y="210" as="targetPoint" />
            <Array as="points">
              <mxPoint x="1280" y="220" />
            </Array>
          </mxGeometry>
        </mxCell>
        <mxCell id="Rs4xig4Tb-00kTWUBzq4-23" value="" style="endArrow=classic;html=1;rounded=0;exitX=0.5;exitY=0;exitDx=0;exitDy=0;entryX=0.5;entryY=1;entryDx=0;entryDy=0;fillColor=#d5e8d4;strokeColor=#82b366;" edge="1" parent="1" source="sESHhPpWd29Qu0UBiGSD-21" target="sESHhPpWd29Qu0UBiGSD-15">
          <mxGeometry width="50" height="50" relative="1" as="geometry">
            <mxPoint x="850" y="500" as="sourcePoint" />
            <mxPoint x="900" y="450" as="targetPoint" />
          </mxGeometry>
        </mxCell>
        <mxCell id="Rs4xig4Tb-00kTWUBzq4-24" value="" style="endArrow=classic;html=1;rounded=0;exitX=1;exitY=0.5;exitDx=0;exitDy=0;entryX=0;entryY=0.5;entryDx=0;entryDy=0;fillColor=#d5e8d4;strokeColor=#82b366;" edge="1" parent="1" source="sESHhPpWd29Qu0UBiGSD-21" target="sESHhPpWd29Qu0UBiGSD-20">
          <mxGeometry width="50" height="50" relative="1" as="geometry">
            <mxPoint x="850" y="500" as="sourcePoint" />
            <mxPoint x="900" y="450" as="targetPoint" />
            <Array as="points">
              <mxPoint x="820" y="500" />
              <mxPoint x="820" y="380" />
            </Array>
          </mxGeometry>
        </mxCell>
        <mxCell id="Rs4xig4Tb-00kTWUBzq4-26" value="" style="endArrow=classic;html=1;rounded=0;entryX=0.5;entryY=1;entryDx=0;entryDy=0;exitX=0.5;exitY=0;exitDx=0;exitDy=0;fillColor=#d5e8d4;strokeColor=#82b366;" edge="1" parent="1" source="sESHhPpWd29Qu0UBiGSD-22" target="sESHhPpWd29Qu0UBiGSD-20">
          <mxGeometry width="50" height="50" relative="1" as="geometry">
            <mxPoint x="940" y="680" as="sourcePoint" />
            <mxPoint x="990" y="630" as="targetPoint" />
          </mxGeometry>
        </mxCell>
        <mxCell id="Rs4xig4Tb-00kTWUBzq4-27" value="" style="endArrow=classic;html=1;rounded=0;entryX=1;entryY=0.5;entryDx=0;entryDy=0;exitX=0.5;exitY=0;exitDx=0;exitDy=0;fillColor=#d5e8d4;strokeColor=#82b366;" edge="1" parent="1" source="sESHhPpWd29Qu0UBiGSD-24" target="sESHhPpWd29Qu0UBiGSD-20">
          <mxGeometry width="50" height="50" relative="1" as="geometry">
            <mxPoint x="940" y="680" as="sourcePoint" />
            <mxPoint x="990" y="630" as="targetPoint" />
            <Array as="points">
              <mxPoint x="1120" y="380" />
            </Array>
          </mxGeometry>
        </mxCell>
        <mxCell id="Rs4xig4Tb-00kTWUBzq4-28" value="" style="endArrow=classic;html=1;rounded=0;entryX=0.5;entryY=1;entryDx=0;entryDy=0;exitX=1;exitY=0.5;exitDx=0;exitDy=0;fillColor=#d5e8d4;strokeColor=#82b366;" edge="1" parent="1" source="sESHhPpWd29Qu0UBiGSD-30" target="sESHhPpWd29Qu0UBiGSD-24">
          <mxGeometry width="50" height="50" relative="1" as="geometry">
            <mxPoint x="940" y="780" as="sourcePoint" />
            <mxPoint x="990" y="730" as="targetPoint" />
            <Array as="points">
              <mxPoint x="1120" y="900" />
            </Array>
          </mxGeometry>
        </mxCell>
        <mxCell id="Rs4xig4Tb-00kTWUBzq4-29" value="" style="endArrow=classic;html=1;rounded=0;exitX=0.5;exitY=0;exitDx=0;exitDy=0;entryX=0.5;entryY=1;entryDx=0;entryDy=0;fillColor=#d5e8d4;strokeColor=#82b366;" edge="1" parent="1" source="sESHhPpWd29Qu0UBiGSD-29" target="sESHhPpWd29Qu0UBiGSD-22">
          <mxGeometry width="50" height="50" relative="1" as="geometry">
            <mxPoint x="930" y="590" as="sourcePoint" />
            <mxPoint x="980" y="540" as="targetPoint" />
          </mxGeometry>
        </mxCell>
        <mxCell id="Rs4xig4Tb-00kTWUBzq4-30" value="" style="endArrow=classic;html=1;rounded=0;exitX=0.5;exitY=0;exitDx=0;exitDy=0;entryX=0;entryY=0.5;entryDx=0;entryDy=0;fillColor=#d5e8d4;strokeColor=#82b366;" edge="1" parent="1" source="sESHhPpWd29Qu0UBiGSD-23" target="sESHhPpWd29Qu0UBiGSD-21">
          <mxGeometry width="50" height="50" relative="1" as="geometry">
            <mxPoint x="930" y="590" as="sourcePoint" />
            <mxPoint x="980" y="540" as="targetPoint" />
            <Array as="points">
              <mxPoint x="440" y="500" />
            </Array>
          </mxGeometry>
        </mxCell>
        <mxCell id="Rs4xig4Tb-00kTWUBzq4-32" value="" style="endArrow=classic;html=1;rounded=0;entryX=0.75;entryY=1;entryDx=0;entryDy=0;exitX=0.25;exitY=0;exitDx=0;exitDy=0;fillColor=#d5e8d4;strokeColor=#82b366;" edge="1" parent="1" source="sESHhPpWd29Qu0UBiGSD-28" target="sESHhPpWd29Qu0UBiGSD-21">
          <mxGeometry width="50" height="50" relative="1" as="geometry">
            <mxPoint x="950" y="620" as="sourcePoint" />
            <mxPoint x="1000" y="570" as="targetPoint" />
          </mxGeometry>
        </mxCell>
        <mxCell id="Rs4xig4Tb-00kTWUBzq4-33" value="" style="endArrow=classic;html=1;rounded=0;entryX=0.5;entryY=1;entryDx=0;entryDy=0;exitX=0.5;exitY=0;exitDx=0;exitDy=0;fillColor=#d5e8d4;strokeColor=#82b366;" edge="1" parent="1" source="sESHhPpWd29Qu0UBiGSD-25" target="sESHhPpWd29Qu0UBiGSD-28">
          <mxGeometry width="50" height="50" relative="1" as="geometry">
            <mxPoint x="950" y="620" as="sourcePoint" />
            <mxPoint x="1000" y="570" as="targetPoint" />
          </mxGeometry>
        </mxCell>
        <mxCell id="Rs4xig4Tb-00kTWUBzq4-34" value="" style="endArrow=classic;html=1;rounded=0;entryX=0.5;entryY=1;entryDx=0;entryDy=0;exitX=0.5;exitY=0;exitDx=0;exitDy=0;fillColor=#d5e8d4;strokeColor=#82b366;" edge="1" parent="1" source="sESHhPpWd29Qu0UBiGSD-26" target="TRdlj-5DoPHQLX2t0U4Q-1">
          <mxGeometry width="50" height="50" relative="1" as="geometry">
            <mxPoint x="950" y="620" as="sourcePoint" />
            <mxPoint x="1000" y="570" as="targetPoint" />
          </mxGeometry>
        </mxCell>
        <mxCell id="Rs4xig4Tb-00kTWUBzq4-35" value="" style="endArrow=classic;html=1;rounded=0;entryX=0.5;entryY=1;entryDx=0;entryDy=0;exitX=0;exitY=0.5;exitDx=0;exitDy=0;fillColor=#d5e8d4;strokeColor=#82b366;" edge="1" parent="1" source="sESHhPpWd29Qu0UBiGSD-26" target="sESHhPpWd29Qu0UBiGSD-23">
          <mxGeometry width="50" height="50" relative="1" as="geometry">
            <mxPoint x="950" y="620" as="sourcePoint" />
            <mxPoint x="1000" y="570" as="targetPoint" />
            <Array as="points">
              <mxPoint x="440" y="940" />
            </Array>
          </mxGeometry>
        </mxCell>
        <mxCell id="Rs4xig4Tb-00kTWUBzq4-36" value="" style="endArrow=classic;html=1;rounded=0;entryX=0.5;entryY=1;entryDx=0;entryDy=0;exitX=0.5;exitY=0;exitDx=0;exitDy=0;fillColor=#d5e8d4;strokeColor=#82b366;" edge="1" parent="1" source="TRdlj-5DoPHQLX2t0U4Q-1" target="sESHhPpWd29Qu0UBiGSD-16">
          <mxGeometry width="50" height="50" relative="1" as="geometry">
            <mxPoint x="950" y="520" as="sourcePoint" />
            <mxPoint x="1000" y="470" as="targetPoint" />
          </mxGeometry>
        </mxCell>
        <mxCell id="Rs4xig4Tb-00kTWUBzq4-39" value="" style="endArrow=classic;html=1;rounded=0;entryX=0.25;entryY=1;entryDx=0;entryDy=0;exitX=0.75;exitY=0;exitDx=0;exitDy=0;fillColor=#d5e8d4;strokeColor=#82b366;" edge="1" parent="1" source="sESHhPpWd29Qu0UBiGSD-27" target="sESHhPpWd29Qu0UBiGSD-21">
          <mxGeometry width="50" height="50" relative="1" as="geometry">
            <mxPoint x="710" y="560" as="sourcePoint" />
            <mxPoint x="760" y="510" as="targetPoint" />
          </mxGeometry>
        </mxCell>
        <mxCell id="tDdFNPzY7QZ0Eq95mvWC-1" value="" style="endArrow=classic;html=1;rounded=0;exitX=1;exitY=0.5;exitDx=0;exitDy=0;entryX=0;entryY=0.5;entryDx=0;entryDy=0;fillColor=#d5e8d4;strokeColor=#82b366;" edge="1" parent="1" source="sESHhPpWd29Qu0UBiGSD-22" target="sESHhPpWd29Qu0UBiGSD-16">
          <mxGeometry width="50" height="50" relative="1" as="geometry">
            <mxPoint x="1090" y="570" as="sourcePoint" />
            <mxPoint x="1140" y="520" as="targetPoint" />
            <Array as="points">
              <mxPoint x="1160" y="500" />
              <mxPoint x="1160" y="380" />
            </Array>
          </mxGeometry>
        </mxCell>
      </root>
    </mxGraphModel>
  </diagram>
  <diagram name="Copy of Page-4" id="WyjT8eUq_6bMWSDh_hmK">
    <mxGraphModel dx="1360" dy="843" grid="1" gridSize="10" guides="1" tooltips="1" connect="1" arrows="1" fold="1" page="1" pageScale="1" pageWidth="827" pageHeight="1169" math="0" shadow="0">
      <root>
        <mxCell id="YoFv2tNbxUKzERUyD9Ih-0" />
        <mxCell id="YoFv2tNbxUKzERUyD9Ih-1" parent="YoFv2tNbxUKzERUyD9Ih-0" />
        <mxCell id="YoFv2tNbxUKzERUyD9Ih-2" value="Iterable" style="ellipse;whiteSpace=wrap;html=1;fontSize=16;fillColor=#fff2cc;strokeColor=#d6b656;" vertex="1" parent="YoFv2tNbxUKzERUyD9Ih-1">
          <mxGeometry x="640" y="80" width="120" height="40" as="geometry" />
        </mxCell>
        <mxCell id="YoFv2tNbxUKzERUyD9Ih-3" value="Collection" style="ellipse;whiteSpace=wrap;html=1;fontSize=16;fillColor=#fff2cc;strokeColor=#d6b656;" vertex="1" parent="YoFv2tNbxUKzERUyD9Ih-1">
          <mxGeometry x="640" y="200" width="120" height="40" as="geometry" />
        </mxCell>
        <mxCell id="YoFv2tNbxUKzERUyD9Ih-4" value="List" style="ellipse;whiteSpace=wrap;html=1;fontSize=16;fillColor=#fff2cc;strokeColor=#d6b656;" vertex="1" parent="YoFv2tNbxUKzERUyD9Ih-1">
          <mxGeometry x="660" y="320" width="80" height="40" as="geometry" />
        </mxCell>
        <mxCell id="YoFv2tNbxUKzERUyD9Ih-5" value="Queue" style="ellipse;whiteSpace=wrap;html=1;fontSize=16;fillColor=#fff2cc;strokeColor=#d6b656;" vertex="1" parent="YoFv2tNbxUKzERUyD9Ih-1">
          <mxGeometry x="1241" y="360" width="80" height="40" as="geometry" />
        </mxCell>
        <mxCell id="YoFv2tNbxUKzERUyD9Ih-6" value="Set" style="ellipse;whiteSpace=wrap;html=1;fontSize=16;fillColor=#fff2cc;strokeColor=#d6b656;" vertex="1" parent="YoFv2tNbxUKzERUyD9Ih-1">
          <mxGeometry x="160" y="360" width="80" height="40" as="geometry" />
        </mxCell>
        <mxCell id="YoFv2tNbxUKzERUyD9Ih-7" value="SortedSet" style="ellipse;whiteSpace=wrap;html=1;fontSize=16;fillColor=#fff2cc;strokeColor=#d6b656;" vertex="1" parent="YoFv2tNbxUKzERUyD9Ih-1">
          <mxGeometry x="150" y="480" width="100" height="40" as="geometry" />
        </mxCell>
        <mxCell id="YoFv2tNbxUKzERUyD9Ih-8" value="NavigableSet" style="ellipse;whiteSpace=wrap;html=1;fontSize=16;fillColor=#fff2cc;strokeColor=#d6b656;" vertex="1" parent="YoFv2tNbxUKzERUyD9Ih-1">
          <mxGeometry x="140" y="600" width="120" height="40" as="geometry" />
        </mxCell>
        <mxCell id="YoFv2tNbxUKzERUyD9Ih-9" value="AbstractCollection" style="rounded=1;whiteSpace=wrap;html=1;fontSize=16;fillColor=#dae8fc;strokeColor=#6c8ebf;" vertex="1" parent="YoFv2tNbxUKzERUyD9Ih-1">
          <mxGeometry x="880" y="360" width="160" height="40" as="geometry" />
        </mxCell>
        <mxCell id="YoFv2tNbxUKzERUyD9Ih-10" value="AbstractList" style="rounded=1;whiteSpace=wrap;html=1;fontSize=16;fillColor=#dae8fc;strokeColor=#6c8ebf;" vertex="1" parent="YoFv2tNbxUKzERUyD9Ih-1">
          <mxGeometry x="640" y="480" width="120" height="40" as="geometry" />
        </mxCell>
        <mxCell id="YoFv2tNbxUKzERUyD9Ih-11" value="AbstractQueue" style="rounded=1;whiteSpace=wrap;html=1;fontSize=16;fillColor=#dae8fc;strokeColor=#6c8ebf;" vertex="1" parent="YoFv2tNbxUKzERUyD9Ih-1">
          <mxGeometry x="897.5" y="480" width="125" height="40" as="geometry" />
        </mxCell>
        <mxCell id="YoFv2tNbxUKzERUyD9Ih-12" value="AbstractSequentialList" style="rounded=1;whiteSpace=wrap;html=1;fontSize=16;fillColor=#dae8fc;strokeColor=#6c8ebf;" vertex="1" parent="YoFv2tNbxUKzERUyD9Ih-1">
          <mxGeometry x="350" y="640" width="180" height="40" as="geometry" />
        </mxCell>
        <mxCell id="YoFv2tNbxUKzERUyD9Ih-13" value="AbstractSet" style="rounded=1;whiteSpace=wrap;html=1;fontSize=16;fillColor=#dae8fc;strokeColor=#6c8ebf;" vertex="1" parent="YoFv2tNbxUKzERUyD9Ih-1">
          <mxGeometry x="1060" y="600" width="120" height="40" as="geometry" />
        </mxCell>
        <mxCell id="YoFv2tNbxUKzERUyD9Ih-14" value="Stack" style="rounded=0;whiteSpace=wrap;html=1;fontSize=16;fillColor=#e1d5e7;strokeColor=#9673a6;" vertex="1" parent="YoFv2tNbxUKzERUyD9Ih-1">
          <mxGeometry x="710" y="800" width="80" height="40" as="geometry" />
        </mxCell>
        <mxCell id="YoFv2tNbxUKzERUyD9Ih-15" value="LinkedList" style="rounded=0;whiteSpace=wrap;html=1;fontSize=16;fillColor=#e1d5e7;strokeColor=#9673a6;" vertex="1" parent="YoFv2tNbxUKzERUyD9Ih-1">
          <mxGeometry x="1220" y="920" width="120" height="40" as="geometry" />
        </mxCell>
        <mxCell id="YoFv2tNbxUKzERUyD9Ih-16" value="ArrayList" style="rounded=0;whiteSpace=wrap;html=1;fontSize=16;fillColor=#e1d5e7;strokeColor=#9673a6;" vertex="1" parent="YoFv2tNbxUKzERUyD9Ih-1">
          <mxGeometry x="610" y="600" width="80" height="40" as="geometry" />
        </mxCell>
        <mxCell id="YoFv2tNbxUKzERUyD9Ih-17" value="Vector" style="rounded=0;whiteSpace=wrap;html=1;fontSize=16;fillColor=#e1d5e7;strokeColor=#9673a6;" vertex="1" parent="YoFv2tNbxUKzERUyD9Ih-1">
          <mxGeometry x="710" y="680" width="80" height="40" as="geometry" />
        </mxCell>
        <mxCell id="YoFv2tNbxUKzERUyD9Ih-18" value="PriorityQueue" style="rounded=0;whiteSpace=wrap;html=1;fontSize=16;fillColor=#e1d5e7;strokeColor=#9673a6;" vertex="1" parent="YoFv2tNbxUKzERUyD9Ih-1">
          <mxGeometry x="900" y="600" width="120" height="40" as="geometry" />
        </mxCell>
        <mxCell id="YoFv2tNbxUKzERUyD9Ih-19" value="TreeSet" style="rounded=0;whiteSpace=wrap;html=1;fontSize=16;fillColor=#fff2cc;strokeColor=#d6b656;" vertex="1" parent="YoFv2tNbxUKzERUyD9Ih-1">
          <mxGeometry x="140" y="880" width="120" height="40" as="geometry" />
        </mxCell>
        <mxCell id="YoFv2tNbxUKzERUyD9Ih-20" value="&lt;font style=&quot;font-size: 16px;&quot;&gt;Deque&lt;/font&gt;" style="ellipse;whiteSpace=wrap;html=1;fillColor=#fff2cc;strokeColor=#d6b656;" vertex="1" parent="YoFv2tNbxUKzERUyD9Ih-1">
          <mxGeometry x="1241" y="480" width="80" height="40" as="geometry" />
        </mxCell>
        <mxCell id="YoFv2tNbxUKzERUyD9Ih-21" value="" style="endArrow=classic;html=1;rounded=0;entryX=0.5;entryY=1;entryDx=0;entryDy=0;exitX=0.5;exitY=0;exitDx=0;exitDy=0;fillColor=#d5e8d4;strokeColor=#82b366;" edge="1" parent="YoFv2tNbxUKzERUyD9Ih-1" source="YoFv2tNbxUKzERUyD9Ih-3" target="YoFv2tNbxUKzERUyD9Ih-2">
          <mxGeometry width="50" height="50" relative="1" as="geometry">
            <mxPoint x="1080" y="650" as="sourcePoint" />
            <mxPoint x="1130" y="600" as="targetPoint" />
          </mxGeometry>
        </mxCell>
        <mxCell id="YoFv2tNbxUKzERUyD9Ih-22" value="" style="endArrow=classic;html=1;rounded=0;entryX=0.5;entryY=1;entryDx=0;entryDy=0;exitX=0.5;exitY=0;exitDx=0;exitDy=0;fillColor=#d5e8d4;strokeColor=#82b366;" edge="1" parent="YoFv2tNbxUKzERUyD9Ih-1" source="YoFv2tNbxUKzERUyD9Ih-4" target="YoFv2tNbxUKzERUyD9Ih-3">
          <mxGeometry width="50" height="50" relative="1" as="geometry">
            <mxPoint x="1080" y="530" as="sourcePoint" />
            <mxPoint x="1130" y="480" as="targetPoint" />
          </mxGeometry>
        </mxCell>
        <mxCell id="YoFv2tNbxUKzERUyD9Ih-23" value="" style="endArrow=classic;html=1;rounded=0;entryX=0.5;entryY=1;entryDx=0;entryDy=0;exitX=0.5;exitY=0;exitDx=0;exitDy=0;fillColor=#d5e8d4;strokeColor=#82b366;" edge="1" parent="YoFv2tNbxUKzERUyD9Ih-1" source="YoFv2tNbxUKzERUyD9Ih-19" target="YoFv2tNbxUKzERUyD9Ih-8">
          <mxGeometry width="50" height="50" relative="1" as="geometry">
            <mxPoint x="500" y="760" as="sourcePoint" />
            <mxPoint x="670" y="650" as="targetPoint" />
          </mxGeometry>
        </mxCell>
        <mxCell id="YoFv2tNbxUKzERUyD9Ih-24" value="" style="endArrow=classic;html=1;rounded=0;exitX=0.5;exitY=0;exitDx=0;exitDy=0;entryX=0.5;entryY=1;entryDx=0;entryDy=0;fillColor=#d5e8d4;strokeColor=#82b366;" edge="1" parent="YoFv2tNbxUKzERUyD9Ih-1" source="YoFv2tNbxUKzERUyD9Ih-8" target="YoFv2tNbxUKzERUyD9Ih-7">
          <mxGeometry width="50" height="50" relative="1" as="geometry">
            <mxPoint x="370" y="700" as="sourcePoint" />
            <mxPoint x="420" y="650" as="targetPoint" />
          </mxGeometry>
        </mxCell>
        <mxCell id="YoFv2tNbxUKzERUyD9Ih-25" value="" style="endArrow=classic;html=1;rounded=0;exitX=0.5;exitY=0;exitDx=0;exitDy=0;entryX=0.5;entryY=1;entryDx=0;entryDy=0;fillColor=#d5e8d4;strokeColor=#82b366;" edge="1" parent="YoFv2tNbxUKzERUyD9Ih-1" source="YoFv2tNbxUKzERUyD9Ih-7" target="YoFv2tNbxUKzERUyD9Ih-6">
          <mxGeometry width="50" height="50" relative="1" as="geometry">
            <mxPoint x="360" y="500" as="sourcePoint" />
            <mxPoint x="410" y="450" as="targetPoint" />
          </mxGeometry>
        </mxCell>
        <mxCell id="YoFv2tNbxUKzERUyD9Ih-26" value="" style="endArrow=classic;html=1;rounded=0;exitX=0.5;exitY=0;exitDx=0;exitDy=0;entryX=0.5;entryY=1;entryDx=0;entryDy=0;fillColor=#d5e8d4;strokeColor=#82b366;" edge="1" parent="YoFv2tNbxUKzERUyD9Ih-1" source="YoFv2tNbxUKzERUyD9Ih-9" target="YoFv2tNbxUKzERUyD9Ih-3">
          <mxGeometry width="50" height="50" relative="1" as="geometry">
            <mxPoint x="1030" y="400" as="sourcePoint" />
            <mxPoint x="1080" y="350" as="targetPoint" />
            <Array as="points">
              <mxPoint x="960" y="280" />
              <mxPoint x="700" y="280" />
            </Array>
          </mxGeometry>
        </mxCell>
        <mxCell id="YoFv2tNbxUKzERUyD9Ih-27" value="" style="endArrow=classic;html=1;rounded=0;entryX=0;entryY=0.5;entryDx=0;entryDy=0;exitX=0.5;exitY=0;exitDx=0;exitDy=0;fillColor=#d5e8d4;strokeColor=#82b366;" edge="1" parent="YoFv2tNbxUKzERUyD9Ih-1" source="YoFv2tNbxUKzERUyD9Ih-6" target="YoFv2tNbxUKzERUyD9Ih-3">
          <mxGeometry width="50" height="50" relative="1" as="geometry">
            <mxPoint x="570" y="400" as="sourcePoint" />
            <mxPoint x="620" y="350" as="targetPoint" />
            <Array as="points">
              <mxPoint x="200" y="220" />
            </Array>
          </mxGeometry>
        </mxCell>
        <mxCell id="YoFv2tNbxUKzERUyD9Ih-28" value="" style="endArrow=classic;html=1;rounded=0;exitX=0.5;exitY=0;exitDx=0;exitDy=0;entryX=1;entryY=0.5;entryDx=0;entryDy=0;fillColor=#d5e8d4;strokeColor=#82b366;" edge="1" parent="YoFv2tNbxUKzERUyD9Ih-1" source="YoFv2tNbxUKzERUyD9Ih-5" target="YoFv2tNbxUKzERUyD9Ih-3">
          <mxGeometry width="50" height="50" relative="1" as="geometry">
            <mxPoint x="570" y="400" as="sourcePoint" />
            <mxPoint x="820" y="210" as="targetPoint" />
            <Array as="points">
              <mxPoint x="1280" y="220" />
            </Array>
          </mxGeometry>
        </mxCell>
        <mxCell id="YoFv2tNbxUKzERUyD9Ih-29" value="" style="endArrow=classic;html=1;rounded=0;exitX=0.5;exitY=0;exitDx=0;exitDy=0;entryX=0.5;entryY=1;entryDx=0;entryDy=0;fillColor=#d5e8d4;strokeColor=#82b366;" edge="1" parent="YoFv2tNbxUKzERUyD9Ih-1" source="YoFv2tNbxUKzERUyD9Ih-10" target="YoFv2tNbxUKzERUyD9Ih-4">
          <mxGeometry width="50" height="50" relative="1" as="geometry">
            <mxPoint x="850" y="500" as="sourcePoint" />
            <mxPoint x="900" y="450" as="targetPoint" />
          </mxGeometry>
        </mxCell>
        <mxCell id="YoFv2tNbxUKzERUyD9Ih-30" value="" style="endArrow=classic;html=1;rounded=0;exitX=1;exitY=0.5;exitDx=0;exitDy=0;entryX=0;entryY=0.5;entryDx=0;entryDy=0;fillColor=#d5e8d4;strokeColor=#82b366;" edge="1" parent="YoFv2tNbxUKzERUyD9Ih-1" source="YoFv2tNbxUKzERUyD9Ih-10" target="YoFv2tNbxUKzERUyD9Ih-9">
          <mxGeometry width="50" height="50" relative="1" as="geometry">
            <mxPoint x="850" y="500" as="sourcePoint" />
            <mxPoint x="900" y="450" as="targetPoint" />
            <Array as="points">
              <mxPoint x="820" y="500" />
              <mxPoint x="820" y="380" />
            </Array>
          </mxGeometry>
        </mxCell>
        <mxCell id="YoFv2tNbxUKzERUyD9Ih-31" value="" style="endArrow=classic;html=1;rounded=0;entryX=0.5;entryY=1;entryDx=0;entryDy=0;exitX=0.5;exitY=0;exitDx=0;exitDy=0;fillColor=#d5e8d4;strokeColor=#82b366;" edge="1" parent="YoFv2tNbxUKzERUyD9Ih-1" source="YoFv2tNbxUKzERUyD9Ih-11" target="YoFv2tNbxUKzERUyD9Ih-9">
          <mxGeometry width="50" height="50" relative="1" as="geometry">
            <mxPoint x="940" y="680" as="sourcePoint" />
            <mxPoint x="990" y="630" as="targetPoint" />
          </mxGeometry>
        </mxCell>
        <mxCell id="YoFv2tNbxUKzERUyD9Ih-32" value="" style="endArrow=classic;html=1;rounded=0;entryX=1;entryY=0.5;entryDx=0;entryDy=0;exitX=0.5;exitY=0;exitDx=0;exitDy=0;fillColor=#d5e8d4;strokeColor=#82b366;" edge="1" parent="YoFv2tNbxUKzERUyD9Ih-1" source="YoFv2tNbxUKzERUyD9Ih-13" target="YoFv2tNbxUKzERUyD9Ih-9">
          <mxGeometry width="50" height="50" relative="1" as="geometry">
            <mxPoint x="940" y="680" as="sourcePoint" />
            <mxPoint x="990" y="630" as="targetPoint" />
            <Array as="points">
              <mxPoint x="1120" y="380" />
            </Array>
          </mxGeometry>
        </mxCell>
        <mxCell id="YoFv2tNbxUKzERUyD9Ih-33" value="" style="endArrow=classic;html=1;rounded=0;entryX=0.5;entryY=1;entryDx=0;entryDy=0;exitX=1;exitY=0.5;exitDx=0;exitDy=0;fillColor=#d5e8d4;strokeColor=#82b366;" edge="1" parent="YoFv2tNbxUKzERUyD9Ih-1" source="YoFv2tNbxUKzERUyD9Ih-19" target="YoFv2tNbxUKzERUyD9Ih-13">
          <mxGeometry width="50" height="50" relative="1" as="geometry">
            <mxPoint x="940" y="780" as="sourcePoint" />
            <mxPoint x="990" y="730" as="targetPoint" />
            <Array as="points">
              <mxPoint x="1120" y="900" />
            </Array>
          </mxGeometry>
        </mxCell>
        <mxCell id="YoFv2tNbxUKzERUyD9Ih-34" value="" style="endArrow=classic;html=1;rounded=0;exitX=0.5;exitY=0;exitDx=0;exitDy=0;entryX=0.5;entryY=1;entryDx=0;entryDy=0;fillColor=#d5e8d4;strokeColor=#82b366;" edge="1" parent="YoFv2tNbxUKzERUyD9Ih-1" source="YoFv2tNbxUKzERUyD9Ih-18" target="YoFv2tNbxUKzERUyD9Ih-11">
          <mxGeometry width="50" height="50" relative="1" as="geometry">
            <mxPoint x="930" y="590" as="sourcePoint" />
            <mxPoint x="980" y="540" as="targetPoint" />
          </mxGeometry>
        </mxCell>
        <mxCell id="YoFv2tNbxUKzERUyD9Ih-35" value="" style="endArrow=classic;html=1;rounded=0;exitX=0.5;exitY=0;exitDx=0;exitDy=0;entryX=0;entryY=0.5;entryDx=0;entryDy=0;fillColor=#d5e8d4;strokeColor=#82b366;" edge="1" parent="YoFv2tNbxUKzERUyD9Ih-1" source="YoFv2tNbxUKzERUyD9Ih-12" target="YoFv2tNbxUKzERUyD9Ih-10">
          <mxGeometry width="50" height="50" relative="1" as="geometry">
            <mxPoint x="930" y="590" as="sourcePoint" />
            <mxPoint x="980" y="540" as="targetPoint" />
            <Array as="points">
              <mxPoint x="440" y="500" />
            </Array>
          </mxGeometry>
        </mxCell>
        <mxCell id="YoFv2tNbxUKzERUyD9Ih-36" value="" style="endArrow=classic;html=1;rounded=0;entryX=0.75;entryY=1;entryDx=0;entryDy=0;exitX=0.25;exitY=0;exitDx=0;exitDy=0;fillColor=#d5e8d4;strokeColor=#82b366;" edge="1" parent="YoFv2tNbxUKzERUyD9Ih-1" source="YoFv2tNbxUKzERUyD9Ih-17" target="YoFv2tNbxUKzERUyD9Ih-10">
          <mxGeometry width="50" height="50" relative="1" as="geometry">
            <mxPoint x="950" y="620" as="sourcePoint" />
            <mxPoint x="1000" y="570" as="targetPoint" />
          </mxGeometry>
        </mxCell>
        <mxCell id="YoFv2tNbxUKzERUyD9Ih-37" value="" style="endArrow=classic;html=1;rounded=0;entryX=0.5;entryY=1;entryDx=0;entryDy=0;exitX=0.5;exitY=0;exitDx=0;exitDy=0;fillColor=#d5e8d4;strokeColor=#82b366;" edge="1" parent="YoFv2tNbxUKzERUyD9Ih-1" source="YoFv2tNbxUKzERUyD9Ih-14" target="YoFv2tNbxUKzERUyD9Ih-17">
          <mxGeometry width="50" height="50" relative="1" as="geometry">
            <mxPoint x="950" y="620" as="sourcePoint" />
            <mxPoint x="1000" y="570" as="targetPoint" />
          </mxGeometry>
        </mxCell>
        <mxCell id="YoFv2tNbxUKzERUyD9Ih-38" value="" style="endArrow=classic;html=1;rounded=0;entryX=0.5;entryY=1;entryDx=0;entryDy=0;exitX=0.5;exitY=0;exitDx=0;exitDy=0;fillColor=#d5e8d4;strokeColor=#82b366;" edge="1" parent="YoFv2tNbxUKzERUyD9Ih-1" source="YoFv2tNbxUKzERUyD9Ih-15" target="YoFv2tNbxUKzERUyD9Ih-20">
          <mxGeometry width="50" height="50" relative="1" as="geometry">
            <mxPoint x="950" y="620" as="sourcePoint" />
            <mxPoint x="1000" y="570" as="targetPoint" />
          </mxGeometry>
        </mxCell>
        <mxCell id="YoFv2tNbxUKzERUyD9Ih-39" value="" style="endArrow=classic;html=1;rounded=0;entryX=0.5;entryY=1;entryDx=0;entryDy=0;exitX=0;exitY=0.5;exitDx=0;exitDy=0;fillColor=#d5e8d4;strokeColor=#82b366;" edge="1" parent="YoFv2tNbxUKzERUyD9Ih-1" source="YoFv2tNbxUKzERUyD9Ih-15" target="YoFv2tNbxUKzERUyD9Ih-12">
          <mxGeometry width="50" height="50" relative="1" as="geometry">
            <mxPoint x="950" y="620" as="sourcePoint" />
            <mxPoint x="1000" y="570" as="targetPoint" />
            <Array as="points">
              <mxPoint x="440" y="940" />
            </Array>
          </mxGeometry>
        </mxCell>
        <mxCell id="YoFv2tNbxUKzERUyD9Ih-40" value="" style="endArrow=classic;html=1;rounded=0;entryX=0.5;entryY=1;entryDx=0;entryDy=0;exitX=0.5;exitY=0;exitDx=0;exitDy=0;fillColor=#d5e8d4;strokeColor=#82b366;" edge="1" parent="YoFv2tNbxUKzERUyD9Ih-1" source="YoFv2tNbxUKzERUyD9Ih-20" target="YoFv2tNbxUKzERUyD9Ih-5">
          <mxGeometry width="50" height="50" relative="1" as="geometry">
            <mxPoint x="950" y="520" as="sourcePoint" />
            <mxPoint x="1000" y="470" as="targetPoint" />
          </mxGeometry>
        </mxCell>
        <mxCell id="YoFv2tNbxUKzERUyD9Ih-41" value="" style="endArrow=classic;html=1;rounded=0;entryX=0.25;entryY=1;entryDx=0;entryDy=0;exitX=0.75;exitY=0;exitDx=0;exitDy=0;fillColor=#d5e8d4;strokeColor=#82b366;" edge="1" parent="YoFv2tNbxUKzERUyD9Ih-1" source="YoFv2tNbxUKzERUyD9Ih-16" target="YoFv2tNbxUKzERUyD9Ih-10">
          <mxGeometry width="50" height="50" relative="1" as="geometry">
            <mxPoint x="710" y="560" as="sourcePoint" />
            <mxPoint x="760" y="510" as="targetPoint" />
          </mxGeometry>
        </mxCell>
        <mxCell id="YoFv2tNbxUKzERUyD9Ih-42" value="" style="endArrow=classic;html=1;rounded=0;exitX=1;exitY=0.5;exitDx=0;exitDy=0;entryX=0;entryY=0.5;entryDx=0;entryDy=0;fillColor=#d5e8d4;strokeColor=#82b366;" edge="1" parent="YoFv2tNbxUKzERUyD9Ih-1" source="YoFv2tNbxUKzERUyD9Ih-11" target="YoFv2tNbxUKzERUyD9Ih-5">
          <mxGeometry width="50" height="50" relative="1" as="geometry">
            <mxPoint x="1090" y="570" as="sourcePoint" />
            <mxPoint x="1140" y="520" as="targetPoint" />
            <Array as="points">
              <mxPoint x="1160" y="500" />
              <mxPoint x="1160" y="380" />
            </Array>
          </mxGeometry>
        </mxCell>
      </root>
    </mxGraphModel>
  </diagram>
</mxfile>
